<?xml version="1.0" encoding="utf-8" standalone="no"?>
<!DOCTYPE svg PUBLIC "-//W3C//DTD SVG 1.1//EN"
  "http://www.w3.org/Graphics/SVG/1.1/DTD/svg11.dtd">
<svg xmlns:xlink="http://www.w3.org/1999/xlink" width="669.444923pt" height="701.077656pt" viewBox="0 0 669.444923 701.077656" xmlns="http://www.w3.org/2000/svg" version="1.1">
 <metadata>
  <rdf:RDF xmlns:dc="http://purl.org/dc/elements/1.1/" xmlns:cc="http://creativecommons.org/ns#" xmlns:rdf="http://www.w3.org/1999/02/22-rdf-syntax-ns#">
   <cc:Work>
    <dc:type rdf:resource="http://purl.org/dc/dcmitype/StillImage"/>
    <dc:date>2026-06-30T00:11:21.141862</dc:date>
    <dc:format>image/svg+xml</dc:format>
    <dc:creator>
     <cc:Agent>
      <dc:title>Matplotlib v3.10.8, https://matplotlib.org/</dc:title>
     </cc:Agent>
    </dc:creator>
   </cc:Work>
  </rdf:RDF>
 </metadata>
 <defs>
  <style type="text/css">*{stroke-linejoin: round; stroke-linecap: butt}</style>
 </defs>
 <g id="figure_1">
  <g id="patch_1">
   <path d="M 0 701.077656 
L 669.444923 701.077656 
L 669.444923 0 
L 0 0 
z
" style="fill: #ffffff"/>
  </g>
  <g id="axes_1">
   <g id="patch_2">
    <path d="M 221.113108 69.537964 
L 215.739692 80.284795 
L 214.972062 112.525287 
L 216.200271 177.006272 
L 222.648369 235.34621 
L 216.200271 299.827195 
L 218.810215 327.461902 
L 228.789415 348.955564 
L 241.071508 364.308179 
L 244.763812 373.519749 
L 244.763812 398.083933 
L 301.860188 398.083933 
L 301.860188 373.519749 
L 305.552492 364.308179 
L 317.834585 348.955564 
L 327.813785 327.461902 
L 330.423729 299.827195 
L 323.975631 235.34621 
L 330.423729 177.006272 
L 331.651938 112.525287 
L 330.884308 80.284795 
L 325.510892 69.537964 
z
" clip-path="url(#pfe89fc13c8)" style="fill: #e6ebee; stroke: #15151a; stroke-width: 2; stroke-linejoin: miter"/>
   </g>
   <g id="patch_3">
    <path d="M 216.200271 299.827195 
L 218.810215 327.461902 
L 228.789415 348.955564 
L 241.071508 364.308179 
L 244.763812 373.519749 
L 244.763812 398.083933 
L 301.860188 398.083933 
L 301.860188 373.519749 
L 305.552492 364.308179 
L 317.834585 348.955564 
L 327.813785 327.461902 
L 330.423729 299.827195 
z
" clip-path="url(#pfe89fc13c8)" style="fill: #cf7e34; opacity: 0.9"/>
   </g>
   <g id="patch_4">
    <path d="M 206.784 551.610087 
L 252.841846 551.610087 
L 211.901538 694.901164 
L 165.843692 694.901164 
z
" clip-path="url(#pfe89fc13c8)" style="fill: #e8761a; stroke: #15151a; stroke-width: 1.6; stroke-linejoin: miter"/>
   </g>
   <g id="patch_5">
    <path d="M 205.248738 563.380425 
L 392.550646 563.380425 
Q 407.903262 563.380425 407.903262 548.02781 
L 407.903262 442.606518 
Q 407.903262 427.253902 392.550646 427.253902 
L 205.248738 427.253902 
Q 189.896123 427.253902 189.896123 442.606518 
L 189.896123 548.02781 
Q 189.896123 563.380425 205.248738 563.380425 
z
" clip-path="url(#pfe89fc13c8)" style="fill: #2c2c33; stroke: #15151a; stroke-width: 1.8; stroke-linejoin: miter"/>
   </g>
   <g id="text_1">
    <!-- megamop — trigger-pumped-air applicator (cutaway concept) -->
    <g transform="translate(72.980665 18.597656) scale(0.15 -0.15)">
     <defs>
      <path id="DejaVuSans-Bold-6d" d="M 3781 2919 
Q 3994 3244 4286 3414 
Q 4578 3584 4928 3584 
Q 5531 3584 5847 3212 
Q 6163 2841 6163 2131 
L 6163 0 
L 5038 0 
L 5038 1825 
Q 5041 1866 5042 1909 
Q 5044 1953 5044 2034 
Q 5044 2406 4934 2573 
Q 4825 2741 4581 2741 
Q 4263 2741 4089 2478 
Q 3916 2216 3909 1719 
L 3909 0 
L 2784 0 
L 2784 1825 
Q 2784 2406 2684 2573 
Q 2584 2741 2328 2741 
Q 2006 2741 1831 2477 
Q 1656 2213 1656 1722 
L 1656 0 
L 531 0 
L 531 3500 
L 1656 3500 
L 1656 2988 
Q 1863 3284 2130 3434 
Q 2397 3584 2719 3584 
Q 3081 3584 3359 3409 
Q 3638 3234 3781 2919 
z
" transform="scale(0.015625)"/>
      <path id="DejaVuSans-Bold-65" d="M 4031 1759 
L 4031 1441 
L 1416 1441 
Q 1456 1047 1700 850 
Q 1944 653 2381 653 
Q 2734 653 3104 758 
Q 3475 863 3866 1075 
L 3866 213 
Q 3469 63 3072 -14 
Q 2675 -91 2278 -91 
Q 1328 -91 801 392 
Q 275 875 275 1747 
Q 275 2603 792 3093 
Q 1309 3584 2216 3584 
Q 3041 3584 3536 3087 
Q 4031 2591 4031 1759 
z
M 2881 2131 
Q 2881 2450 2695 2645 
Q 2509 2841 2209 2841 
Q 1884 2841 1681 2658 
Q 1478 2475 1428 2131 
L 2881 2131 
z
" transform="scale(0.015625)"/>
      <path id="DejaVuSans-Bold-67" d="M 2919 594 
Q 2688 288 2409 144 
Q 2131 0 1766 0 
Q 1125 0 706 504 
Q 288 1009 288 1791 
Q 288 2575 706 3076 
Q 1125 3578 1766 3578 
Q 2131 3578 2409 3434 
Q 2688 3291 2919 2981 
L 2919 3500 
L 4044 3500 
L 4044 353 
Q 4044 -491 3511 -936 
Q 2978 -1381 1966 -1381 
Q 1638 -1381 1331 -1331 
Q 1025 -1281 716 -1178 
L 716 -306 
Q 1009 -475 1290 -558 
Q 1572 -641 1856 -641 
Q 2406 -641 2662 -400 
Q 2919 -159 2919 353 
L 2919 594 
z
M 2181 2772 
Q 1834 2772 1640 2515 
Q 1447 2259 1447 1791 
Q 1447 1309 1634 1061 
Q 1822 813 2181 813 
Q 2531 813 2725 1069 
Q 2919 1325 2919 1791 
Q 2919 2259 2725 2515 
Q 2531 2772 2181 2772 
z
" transform="scale(0.015625)"/>
      <path id="DejaVuSans-Bold-61" d="M 2106 1575 
Q 1756 1575 1579 1456 
Q 1403 1338 1403 1106 
Q 1403 894 1545 773 
Q 1688 653 1941 653 
Q 2256 653 2472 879 
Q 2688 1106 2688 1447 
L 2688 1575 
L 2106 1575 
z
M 3816 1997 
L 3816 0 
L 2688 0 
L 2688 519 
Q 2463 200 2181 54 
Q 1900 -91 1497 -91 
Q 953 -91 614 226 
Q 275 544 275 1050 
Q 275 1666 698 1953 
Q 1122 2241 2028 2241 
L 2688 2241 
L 2688 2328 
Q 2688 2594 2478 2717 
Q 2269 2841 1825 2841 
Q 1466 2841 1156 2769 
Q 847 2697 581 2553 
L 581 3406 
Q 941 3494 1303 3539 
Q 1666 3584 2028 3584 
Q 2975 3584 3395 3211 
Q 3816 2838 3816 1997 
z
" transform="scale(0.015625)"/>
      <path id="DejaVuSans-Bold-6f" d="M 2203 2784 
Q 1831 2784 1636 2517 
Q 1441 2250 1441 1747 
Q 1441 1244 1636 976 
Q 1831 709 2203 709 
Q 2569 709 2762 976 
Q 2956 1244 2956 1747 
Q 2956 2250 2762 2517 
Q 2569 2784 2203 2784 
z
M 2203 3584 
Q 3106 3584 3614 3096 
Q 4122 2609 4122 1747 
Q 4122 884 3614 396 
Q 3106 -91 2203 -91 
Q 1297 -91 786 396 
Q 275 884 275 1747 
Q 275 2609 786 3096 
Q 1297 3584 2203 3584 
z
" transform="scale(0.015625)"/>
      <path id="DejaVuSans-Bold-70" d="M 1656 506 
L 1656 -1331 
L 538 -1331 
L 538 3500 
L 1656 3500 
L 1656 2988 
Q 1888 3294 2169 3439 
Q 2450 3584 2816 3584 
Q 3463 3584 3878 3070 
Q 4294 2556 4294 1747 
Q 4294 938 3878 423 
Q 3463 -91 2816 -91 
Q 2450 -91 2169 54 
Q 1888 200 1656 506 
z
M 2400 2772 
Q 2041 2772 1848 2508 
Q 1656 2244 1656 1747 
Q 1656 1250 1848 986 
Q 2041 722 2400 722 
Q 2759 722 2948 984 
Q 3138 1247 3138 1747 
Q 3138 2247 2948 2509 
Q 2759 2772 2400 2772 
z
" transform="scale(0.015625)"/>
      <path id="DejaVuSans-Bold-20" transform="scale(0.015625)"/>
      <path id="DejaVuSans-Bold-2014" d="M 344 2156 
L 6056 2156 
L 6056 1350 
L 344 1350 
L 344 2156 
z
" transform="scale(0.015625)"/>
      <path id="DejaVuSans-Bold-74" d="M 1759 4494 
L 1759 3500 
L 2913 3500 
L 2913 2700 
L 1759 2700 
L 1759 1216 
Q 1759 972 1856 886 
Q 1953 800 2241 800 
L 2816 800 
L 2816 0 
L 1856 0 
Q 1194 0 917 276 
Q 641 553 641 1216 
L 641 2700 
L 84 2700 
L 84 3500 
L 641 3500 
L 641 4494 
L 1759 4494 
z
" transform="scale(0.015625)"/>
      <path id="DejaVuSans-Bold-72" d="M 3138 2547 
Q 2991 2616 2845 2648 
Q 2700 2681 2553 2681 
Q 2122 2681 1889 2404 
Q 1656 2128 1656 1613 
L 1656 0 
L 538 0 
L 538 3500 
L 1656 3500 
L 1656 2925 
Q 1872 3269 2151 3426 
Q 2431 3584 2822 3584 
Q 2878 3584 2943 3579 
Q 3009 3575 3134 3559 
L 3138 2547 
z
" transform="scale(0.015625)"/>
      <path id="DejaVuSans-Bold-69" d="M 538 3500 
L 1656 3500 
L 1656 0 
L 538 0 
L 538 3500 
z
M 538 4863 
L 1656 4863 
L 1656 3950 
L 538 3950 
L 538 4863 
z
" transform="scale(0.015625)"/>
      <path id="DejaVuSans-Bold-2d" d="M 347 2297 
L 2309 2297 
L 2309 1388 
L 347 1388 
L 347 2297 
z
" transform="scale(0.015625)"/>
      <path id="DejaVuSans-Bold-75" d="M 500 1363 
L 500 3500 
L 1625 3500 
L 1625 3150 
Q 1625 2866 1622 2436 
Q 1619 2006 1619 1863 
Q 1619 1441 1641 1255 
Q 1663 1069 1716 984 
Q 1784 875 1895 815 
Q 2006 756 2150 756 
Q 2500 756 2700 1025 
Q 2900 1294 2900 1772 
L 2900 3500 
L 4019 3500 
L 4019 0 
L 2900 0 
L 2900 506 
Q 2647 200 2364 54 
Q 2081 -91 1741 -91 
Q 1134 -91 817 281 
Q 500 653 500 1363 
z
" transform="scale(0.015625)"/>
      <path id="DejaVuSans-Bold-64" d="M 2919 2988 
L 2919 4863 
L 4044 4863 
L 4044 0 
L 2919 0 
L 2919 506 
Q 2688 197 2409 53 
Q 2131 -91 1766 -91 
Q 1119 -91 703 423 
Q 288 938 288 1747 
Q 288 2556 703 3070 
Q 1119 3584 1766 3584 
Q 2128 3584 2408 3439 
Q 2688 3294 2919 2988 
z
M 2181 722 
Q 2541 722 2730 984 
Q 2919 1247 2919 1747 
Q 2919 2247 2730 2509 
Q 2541 2772 2181 2772 
Q 1825 2772 1636 2509 
Q 1447 2247 1447 1747 
Q 1447 1247 1636 984 
Q 1825 722 2181 722 
z
" transform="scale(0.015625)"/>
      <path id="DejaVuSans-Bold-6c" d="M 538 4863 
L 1656 4863 
L 1656 0 
L 538 0 
L 538 4863 
z
" transform="scale(0.015625)"/>
      <path id="DejaVuSans-Bold-63" d="M 3366 3391 
L 3366 2478 
Q 3138 2634 2908 2709 
Q 2678 2784 2431 2784 
Q 1963 2784 1702 2511 
Q 1441 2238 1441 1747 
Q 1441 1256 1702 982 
Q 1963 709 2431 709 
Q 2694 709 2930 787 
Q 3166 866 3366 1019 
L 3366 103 
Q 3103 6 2833 -42 
Q 2563 -91 2291 -91 
Q 1344 -91 809 395 
Q 275 881 275 1747 
Q 275 2613 809 3098 
Q 1344 3584 2291 3584 
Q 2566 3584 2833 3536 
Q 3100 3488 3366 3391 
z
" transform="scale(0.015625)"/>
      <path id="DejaVuSans-Bold-28" d="M 2413 -844 
L 1484 -844 
Q 1006 -72 778 623 
Q 550 1319 550 2003 
Q 550 2688 779 3389 
Q 1009 4091 1484 4856 
L 2413 4856 
Q 2013 4116 1813 3408 
Q 1613 2700 1613 2009 
Q 1613 1319 1811 609 
Q 2009 -100 2413 -844 
z
" transform="scale(0.015625)"/>
      <path id="DejaVuSans-Bold-77" d="M 225 3500 
L 1313 3500 
L 1900 1088 
L 2491 3500 
L 3425 3500 
L 4013 1113 
L 4603 3500 
L 5691 3500 
L 4769 0 
L 3547 0 
L 2956 2406 
L 2369 0 
L 1147 0 
L 225 3500 
z
" transform="scale(0.015625)"/>
      <path id="DejaVuSans-Bold-79" d="M 78 3500 
L 1197 3500 
L 2138 1125 
L 2938 3500 
L 4056 3500 
L 2584 -331 
Q 2363 -916 2067 -1148 
Q 1772 -1381 1288 -1381 
L 641 -1381 
L 641 -647 
L 991 -647 
Q 1275 -647 1404 -556 
Q 1534 -466 1606 -231 
L 1638 -134 
L 78 3500 
z
" transform="scale(0.015625)"/>
      <path id="DejaVuSans-Bold-6e" d="M 4056 2131 
L 4056 0 
L 2931 0 
L 2931 347 
L 2931 1631 
Q 2931 2084 2911 2256 
Q 2891 2428 2841 2509 
Q 2775 2619 2662 2680 
Q 2550 2741 2406 2741 
Q 2056 2741 1856 2470 
Q 1656 2200 1656 1722 
L 1656 0 
L 538 0 
L 538 3500 
L 1656 3500 
L 1656 2988 
Q 1909 3294 2193 3439 
Q 2478 3584 2822 3584 
Q 3428 3584 3742 3212 
Q 4056 2841 4056 2131 
z
" transform="scale(0.015625)"/>
      <path id="DejaVuSans-Bold-29" d="M 513 -844 
Q 913 -100 1113 609 
Q 1313 1319 1313 2009 
Q 1313 2700 1113 3408 
Q 913 4116 513 4856 
L 1441 4856 
Q 1916 4091 2145 3389 
Q 2375 2688 2375 2003 
Q 2375 1319 2147 623 
Q 1919 -72 1441 -844 
L 513 -844 
z
" transform="scale(0.015625)"/>
     </defs>
     <use xlink:href="#DejaVuSans-Bold-6d"/>
     <use xlink:href="#DejaVuSans-Bold-65" transform="translate(104.199219 0)"/>
     <use xlink:href="#DejaVuSans-Bold-67" transform="translate(172.021484 0)"/>
     <use xlink:href="#DejaVuSans-Bold-61" transform="translate(243.603516 0)"/>
     <use xlink:href="#DejaVuSans-Bold-6d" transform="translate(311.083984 0)"/>
     <use xlink:href="#DejaVuSans-Bold-6f" transform="translate(415.283203 0)"/>
     <use xlink:href="#DejaVuSans-Bold-70" transform="translate(483.984375 0)"/>
     <use xlink:href="#DejaVuSans-Bold-20" transform="translate(555.566406 0)"/>
     <use xlink:href="#DejaVuSans-Bold-2014" transform="translate(590.380859 0)"/>
     <use xlink:href="#DejaVuSans-Bold-20" transform="translate(690.380859 0)"/>
     <use xlink:href="#DejaVuSans-Bold-74" transform="translate(725.195312 0)"/>
     <use xlink:href="#DejaVuSans-Bold-72" transform="translate(772.998047 0)"/>
     <use xlink:href="#DejaVuSans-Bold-69" transform="translate(822.314453 0)"/>
     <use xlink:href="#DejaVuSans-Bold-67" transform="translate(856.591797 0)"/>
     <use xlink:href="#DejaVuSans-Bold-67" transform="translate(928.173828 0)"/>
     <use xlink:href="#DejaVuSans-Bold-65" transform="translate(999.755859 0)"/>
     <use xlink:href="#DejaVuSans-Bold-72" transform="translate(1067.578125 0)"/>
     <use xlink:href="#DejaVuSans-Bold-2d" transform="translate(1116.894531 0)"/>
     <use xlink:href="#DejaVuSans-Bold-70" transform="translate(1158.398438 0)"/>
     <use xlink:href="#DejaVuSans-Bold-75" transform="translate(1229.980469 0)"/>
     <use xlink:href="#DejaVuSans-Bold-6d" transform="translate(1301.171875 0)"/>
     <use xlink:href="#DejaVuSans-Bold-70" transform="translate(1405.371094 0)"/>
     <use xlink:href="#DejaVuSans-Bold-65" transform="translate(1476.953125 0)"/>
     <use xlink:href="#DejaVuSans-Bold-64" transform="translate(1544.775391 0)"/>
     <use xlink:href="#DejaVuSans-Bold-2d" transform="translate(1616.357422 0)"/>
     <use xlink:href="#DejaVuSans-Bold-61" transform="translate(1657.861328 0)"/>
     <use xlink:href="#DejaVuSans-Bold-69" transform="translate(1725.341797 0)"/>
     <use xlink:href="#DejaVuSans-Bold-72" transform="translate(1759.619141 0)"/>
     <use xlink:href="#DejaVuSans-Bold-20" transform="translate(1808.935547 0)"/>
     <use xlink:href="#DejaVuSans-Bold-61" transform="translate(1843.75 0)"/>
     <use xlink:href="#DejaVuSans-Bold-70" transform="translate(1911.230469 0)"/>
     <use xlink:href="#DejaVuSans-Bold-70" transform="translate(1982.8125 0)"/>
     <use xlink:href="#DejaVuSans-Bold-6c" transform="translate(2054.394531 0)"/>
     <use xlink:href="#DejaVuSans-Bold-69" transform="translate(2088.671875 0)"/>
     <use xlink:href="#DejaVuSans-Bold-63" transform="translate(2122.949219 0)"/>
     <use xlink:href="#DejaVuSans-Bold-61" transform="translate(2182.226562 0)"/>
     <use xlink:href="#DejaVuSans-Bold-74" transform="translate(2249.707031 0)"/>
     <use xlink:href="#DejaVuSans-Bold-6f" transform="translate(2297.509766 0)"/>
     <use xlink:href="#DejaVuSans-Bold-72" transform="translate(2366.210938 0)"/>
     <use xlink:href="#DejaVuSans-Bold-20" transform="translate(2415.527344 0)"/>
     <use xlink:href="#DejaVuSans-Bold-28" transform="translate(2450.341797 0)"/>
     <use xlink:href="#DejaVuSans-Bold-63" transform="translate(2496.044922 0)"/>
     <use xlink:href="#DejaVuSans-Bold-75" transform="translate(2555.322266 0)"/>
     <use xlink:href="#DejaVuSans-Bold-74" transform="translate(2626.513672 0)"/>
     <use xlink:href="#DejaVuSans-Bold-61" transform="translate(2674.316406 0)"/>
     <use xlink:href="#DejaVuSans-Bold-77" transform="translate(2741.796875 0)"/>
     <use xlink:href="#DejaVuSans-Bold-61" transform="translate(2834.179688 0)"/>
     <use xlink:href="#DejaVuSans-Bold-79" transform="translate(2898.535156 0)"/>
     <use xlink:href="#DejaVuSans-Bold-20" transform="translate(2963.720703 0)"/>
     <use xlink:href="#DejaVuSans-Bold-63" transform="translate(2998.535156 0)"/>
     <use xlink:href="#DejaVuSans-Bold-6f" transform="translate(3057.8125 0)"/>
     <use xlink:href="#DejaVuSans-Bold-6e" transform="translate(3126.513672 0)"/>
     <use xlink:href="#DejaVuSans-Bold-63" transform="translate(3197.705078 0)"/>
     <use xlink:href="#DejaVuSans-Bold-65" transform="translate(3256.982422 0)"/>
     <use xlink:href="#DejaVuSans-Bold-70" transform="translate(3324.804688 0)"/>
     <use xlink:href="#DejaVuSans-Bold-74" transform="translate(3396.386719 0)"/>
     <use xlink:href="#DejaVuSans-Bold-29" transform="translate(3444.189453 0)"/>
    </g>
   </g>
   <g id="patch_6">
    <path d="M 221.113108 434.93021 
L 325.510892 434.93021 
Q 330.628431 434.93021 330.628431 429.812672 
L 330.628431 394.501656 
Q 330.628431 389.384118 325.510892 389.384118 
L 221.113108 389.384118 
Q 215.995569 389.384118 215.995569 394.501656 
L 215.995569 429.812672 
Q 215.995569 434.93021 221.113108 434.93021 
z
" clip-path="url(#pfe89fc13c8)" style="fill: #3a3a42; stroke: #15151a; stroke-width: 1.6; stroke-linejoin: miter"/>
   </g>
   <g id="line2d_1">
    <path d="M 365.427692 500.434702 
L 365.427692 413.436549 
L 273.312 413.436549 
L 273.312 216.923072 
" clip-path="url(#pfe89fc13c8)" style="fill: none; stroke: #2f78cf; stroke-width: 2.6; stroke-linecap: square"/>
   </g>
   <g id="line2d_2">
    <path d="M 273.312 408.31901 
L 273.312 479.964549 
L 452.425846 479.964549 
" clip-path="url(#pfe89fc13c8)" style="fill: none; stroke: #9c5a1c; stroke-width: 3.4; stroke-linecap: square"/>
   </g>
   <g id="patch_7">
    <path d="M 452.425846 489.176118 
L 508.718769 489.176118 
L 508.718769 470.752979 
L 452.425846 470.752979 
z
" clip-path="url(#pfe89fc13c8)" style="fill: #d6b8b8; stroke: #9c5a1c; stroke-width: 1.4; stroke-linejoin: miter"/>
   </g>
   <g id="patch_8">
    <path d="M 529.188923 515.787318 
L 529.188923 444.141779 
L 585.481846 459.494395 
L 585.481846 500.434702 
z
" clip-path="url(#pfe89fc13c8)" style="fill: #222222; stroke: #15151a; stroke-width: 1.4; stroke-linejoin: miter"/>
   </g>
   <g id="text_2">
    <!-- AIR -->
    <g style="fill: #2f78cf" transform="translate(262.774344 170.794513) scale(0.11 -0.11)">
     <defs>
      <path id="DejaVuSans-Bold-41" d="M 3419 850 
L 1538 850 
L 1241 0 
L 31 0 
L 1759 4666 
L 3194 4666 
L 4922 0 
L 3713 0 
L 3419 850 
z
M 1838 1716 
L 3116 1716 
L 2478 3572 
L 1838 1716 
z
" transform="scale(0.015625)"/>
      <path id="DejaVuSans-Bold-49" d="M 588 4666 
L 1791 4666 
L 1791 0 
L 588 0 
L 588 4666 
z
" transform="scale(0.015625)"/>
      <path id="DejaVuSans-Bold-52" d="M 2297 2597 
Q 2675 2597 2839 2737 
Q 3003 2878 3003 3200 
Q 3003 3519 2839 3656 
Q 2675 3794 2297 3794 
L 1791 3794 
L 1791 2597 
L 2297 2597 
z
M 1791 1766 
L 1791 0 
L 588 0 
L 588 4666 
L 2425 4666 
Q 3347 4666 3776 4356 
Q 4206 4047 4206 3378 
Q 4206 2916 3982 2619 
Q 3759 2322 3309 2181 
Q 3556 2125 3751 1926 
Q 3947 1728 4147 1325 
L 4800 0 
L 3519 0 
L 2950 1159 
Q 2778 1509 2601 1637 
Q 2425 1766 2131 1766 
L 1791 1766 
z
" transform="scale(0.015625)"/>
     </defs>
     <use xlink:href="#DejaVuSans-Bold-41"/>
     <use xlink:href="#DejaVuSans-Bold-49" transform="translate(77.392578 0)"/>
     <use xlink:href="#DejaVuSans-Bold-52" transform="translate(114.599609 0)"/>
    </g>
    <!-- (pressurized -->
    <g style="fill: #2f78cf" transform="translate(234.490594 183.112107) scale(0.11 -0.11)">
     <defs>
      <path id="DejaVuSans-Bold-73" d="M 3272 3391 
L 3272 2541 
Q 2913 2691 2578 2766 
Q 2244 2841 1947 2841 
Q 1628 2841 1473 2761 
Q 1319 2681 1319 2516 
Q 1319 2381 1436 2309 
Q 1553 2238 1856 2203 
L 2053 2175 
Q 2913 2066 3209 1816 
Q 3506 1566 3506 1031 
Q 3506 472 3093 190 
Q 2681 -91 1863 -91 
Q 1516 -91 1145 -36 
Q 775 19 384 128 
L 384 978 
Q 719 816 1070 734 
Q 1422 653 1784 653 
Q 2113 653 2278 743 
Q 2444 834 2444 1013 
Q 2444 1163 2330 1236 
Q 2216 1309 1875 1350 
L 1678 1375 
Q 931 1469 631 1722 
Q 331 1975 331 2491 
Q 331 3047 712 3315 
Q 1094 3584 1881 3584 
Q 2191 3584 2531 3537 
Q 2872 3491 3272 3391 
z
" transform="scale(0.015625)"/>
      <path id="DejaVuSans-Bold-7a" d="M 366 3500 
L 3419 3500 
L 3419 2719 
L 1575 800 
L 3419 800 
L 3419 0 
L 288 0 
L 288 781 
L 2131 2700 
L 366 2700 
L 366 3500 
z
" transform="scale(0.015625)"/>
     </defs>
     <use xlink:href="#DejaVuSans-Bold-28"/>
     <use xlink:href="#DejaVuSans-Bold-70" transform="translate(45.703125 0)"/>
     <use xlink:href="#DejaVuSans-Bold-72" transform="translate(117.285156 0)"/>
     <use xlink:href="#DejaVuSans-Bold-65" transform="translate(166.601562 0)"/>
     <use xlink:href="#DejaVuSans-Bold-73" transform="translate(234.423828 0)"/>
     <use xlink:href="#DejaVuSans-Bold-73" transform="translate(293.945312 0)"/>
     <use xlink:href="#DejaVuSans-Bold-75" transform="translate(353.466797 0)"/>
     <use xlink:href="#DejaVuSans-Bold-72" transform="translate(424.658203 0)"/>
     <use xlink:href="#DejaVuSans-Bold-69" transform="translate(473.974609 0)"/>
     <use xlink:href="#DejaVuSans-Bold-7a" transform="translate(508.251953 0)"/>
     <use xlink:href="#DejaVuSans-Bold-65" transform="translate(566.455078 0)"/>
     <use xlink:href="#DejaVuSans-Bold-64" transform="translate(634.277344 0)"/>
    </g>
    <!-- headspace) -->
    <g style="fill: #2f78cf" transform="translate(237.591219 195.429701) scale(0.11 -0.11)">
     <defs>
      <path id="DejaVuSans-Bold-68" d="M 4056 2131 
L 4056 0 
L 2931 0 
L 2931 347 
L 2931 1625 
Q 2931 2084 2911 2256 
Q 2891 2428 2841 2509 
Q 2775 2619 2662 2680 
Q 2550 2741 2406 2741 
Q 2056 2741 1856 2470 
Q 1656 2200 1656 1722 
L 1656 0 
L 538 0 
L 538 4863 
L 1656 4863 
L 1656 2988 
Q 1909 3294 2193 3439 
Q 2478 3584 2822 3584 
Q 3428 3584 3742 3212 
Q 4056 2841 4056 2131 
z
" transform="scale(0.015625)"/>
     </defs>
     <use xlink:href="#DejaVuSans-Bold-68"/>
     <use xlink:href="#DejaVuSans-Bold-65" transform="translate(71.191406 0)"/>
     <use xlink:href="#DejaVuSans-Bold-61" transform="translate(139.013672 0)"/>
     <use xlink:href="#DejaVuSans-Bold-64" transform="translate(206.494141 0)"/>
     <use xlink:href="#DejaVuSans-Bold-73" transform="translate(278.076172 0)"/>
     <use xlink:href="#DejaVuSans-Bold-70" transform="translate(337.597656 0)"/>
     <use xlink:href="#DejaVuSans-Bold-61" transform="translate(409.179688 0)"/>
     <use xlink:href="#DejaVuSans-Bold-63" transform="translate(476.660156 0)"/>
     <use xlink:href="#DejaVuSans-Bold-65" transform="translate(535.9375 0)"/>
     <use xlink:href="#DejaVuSans-Bold-29" transform="translate(603.759766 0)"/>
    </g>
   </g>
   <g id="text_3">
    <!-- paint -->
    <g style="fill: #4a2c0c" transform="translate(257.964773 364.135) scale(0.105 -0.105)">
     <use xlink:href="#DejaVuSans-Bold-70"/>
     <use xlink:href="#DejaVuSans-Bold-61" transform="translate(71.582031 0)"/>
     <use xlink:href="#DejaVuSans-Bold-69" transform="translate(139.0625 0)"/>
     <use xlink:href="#DejaVuSans-Bold-6e" transform="translate(173.339844 0)"/>
     <use xlink:href="#DejaVuSans-Bold-74" transform="translate(244.53125 0)"/>
    </g>
   </g>
   <g id="patch_9">
    <path d="M 252.841846 410.877779 
L 273.312 410.877779 
L 273.312 385.290087 
L 252.841846 385.290087 
z
" clip-path="url(#pfe89fc13c8)" style="fill: #888888; stroke: #15151a; stroke-linejoin: miter"/>
   </g>
   <g id="line2d_3">
    <path d="M 353.1456 500.434702 
L 377.709785 510.669779 
L 353.1456 520.904856 
L 377.709785 531.139933 
L 353.1456 541.37501 
L 377.709785 551.610087 
L 353.1456 561.845164 
L 377.709785 572.080241 
" clip-path="url(#pfe89fc13c8)" style="fill: none; stroke: #2f78cf; stroke-width: 3.2; stroke-linecap: square"/>
   </g>
   <g id="patch_10">
    <path d="M 575.246769 444.141779 
L 616.187077 459.494395 
L 616.187077 500.434702 
L 575.246769 515.787318 
z
" clip-path="url(#pfe89fc13c8)" style="fill: #c8242c; opacity: 0.9; stroke: #15151a; stroke-linejoin: miter"/>
   </g>
   <g id="patch_11">
    <path d="M 235.442215 413.948302 
C 236.935121 413.948302 238.367082 413.355165 239.422726 412.299521 
C 240.47837 411.243877 241.071508 409.811916 241.071508 408.31901 
C 241.071508 406.826104 240.47837 405.394143 239.422726 404.338499 
C 238.367082 403.282856 236.935121 402.689718 235.442215 402.689718 
C 233.94931 402.689718 232.517348 403.282856 231.461705 404.338499 
C 230.406061 405.394143 229.812923 406.826104 229.812923 408.31901 
C 229.812923 409.811916 230.406061 411.243877 231.461705 412.299521 
C 232.517348 413.355165 233.94931 413.948302 235.442215 413.948302 
z
" clip-path="url(#pfe89fc13c8)" style="fill: #0a0a0a"/>
   </g>
   <g id="patch_12">
    <path d="M 311.181785 413.948302 
C 312.67469 413.948302 314.106652 413.355165 315.162295 412.299521 
C 316.217939 411.243877 316.811077 409.811916 316.811077 408.31901 
C 316.811077 406.826104 316.217939 405.394143 315.162295 404.338499 
C 314.106652 403.282856 312.67469 402.689718 311.181785 402.689718 
C 309.688879 402.689718 308.256918 403.282856 307.201274 404.338499 
C 306.14563 405.394143 305.552492 406.826104 305.552492 408.31901 
C 305.552492 409.811916 306.14563 411.243877 307.201274 412.299521 
C 308.256918 413.355165 309.688879 413.948302 311.181785 413.948302 
z
" clip-path="url(#pfe89fc13c8)" style="fill: #0a0a0a"/>
   </g>
   <g id="patch_13">
    <path d="M 298.899692 490.199625 
L 324.487385 510.669779 
L 314.252308 582.315318 
L 288.664615 561.845164 
z
" clip-path="url(#pfe89fc13c8)" style="fill: #e8761a; stroke: #15151a; stroke-width: 1.6; stroke-linejoin: miter"/>
   </g>
   <g id="patch_14">
    <path d="M 595.716923 504.528733 
C 596.802673 504.528733 597.844099 504.09736 598.61184 503.329619 
C 599.379581 502.561878 599.810954 501.520452 599.810954 500.434702 
C 599.810954 499.348953 599.379581 498.307526 598.61184 497.539785 
C 597.844099 496.772045 596.802673 496.340672 595.716923 496.340672 
C 594.631173 496.340672 593.589747 496.772045 592.822006 497.539785 
C 592.054265 498.307526 591.622892 499.348953 591.622892 500.434702 
C 591.622892 501.520452 592.054265 502.561878 592.822006 503.329619 
C 593.589747 504.09736 594.631173 504.528733 595.716923 504.528733 
z
" clip-path="url(#pfe89fc13c8)" style="fill: #7a0f12"/>
   </g>
   <g id="patch_15">
    <path d="M 595.716923 490.711379 
C 596.802673 490.711379 597.844099 490.280006 598.61184 489.512265 
C 599.379581 488.744525 599.810954 487.703098 599.810954 486.617349 
C 599.810954 485.531599 599.379581 484.490173 598.61184 483.722432 
C 597.844099 482.954691 596.802673 482.523318 595.716923 482.523318 
C 594.631173 482.523318 593.589747 482.954691 592.822006 483.722432 
C 592.054265 484.490173 591.622892 485.531599 591.622892 486.617349 
C 591.622892 487.703098 592.054265 488.744525 592.822006 489.512265 
C 593.589747 490.280006 594.631173 490.711379 595.716923 490.711379 
z
" clip-path="url(#pfe89fc13c8)" style="fill: #7a0f12"/>
   </g>
   <g id="patch_16">
    <path d="M 595.716923 477.405779 
C 596.802673 477.405779 597.844099 476.974406 598.61184 476.206665 
C 599.379581 475.438925 599.810954 474.397498 599.810954 473.311749 
C 599.810954 472.225999 599.379581 471.184573 598.61184 470.416832 
C 597.844099 469.649091 596.802673 469.217718 595.716923 469.217718 
C 594.631173 469.217718 593.589747 469.649091 592.822006 470.416832 
C 592.054265 471.184573 591.622892 472.225999 591.622892 473.311749 
C 591.622892 474.397498 592.054265 475.438925 592.822006 476.206665 
C 593.589747 476.974406 594.631173 477.405779 595.716923 477.405779 
z
" clip-path="url(#pfe89fc13c8)" style="fill: #7a0f12"/>
   </g>
   <g id="patch_17">
    <path d="M 595.716923 463.588425 
C 596.802673 463.588425 597.844099 463.157053 598.61184 462.389312 
C 599.379581 461.621571 599.810954 460.580144 599.810954 459.494395 
C 599.810954 458.408645 599.379581 457.367219 598.61184 456.599478 
C 597.844099 455.831737 596.802673 455.400364 595.716923 455.400364 
C 594.631173 455.400364 593.589747 455.831737 592.822006 456.599478 
C 592.054265 457.367219 591.622892 458.408645 591.622892 459.494395 
C 591.622892 460.580144 592.054265 461.621571 592.822006 462.389312 
C 593.589747 463.157053 594.631173 463.588425 595.716923 463.588425 
z
" clip-path="url(#pfe89fc13c8)" style="fill: #7a0f12"/>
   </g>
   <g id="patch_18">
    <path d="M 261.665102 391.554574 
Q 252.842015 382.731487 245.283839 375.173311 
" clip-path="url(#pfe89fc13c8)" style="fill: none; stroke: #888888; stroke-width: 1.6; stroke-linecap: round"/>
    <path d="M 247.40516 381.537272 
L 245.283839 375.173311 
L 251.647801 377.294631 
z
" clip-path="url(#pfe89fc13c8)" style="fill: #888888; stroke: #888888; stroke-width: 1.6; stroke-linecap: round"/>
   </g>
   <g id="patch_19">
    <path d="M 424.834118 566.962702 
Q 406.366481 566.962702 390.134911 566.962702 
" clip-path="url(#pfe89fc13c8)" style="fill: none; stroke: #2f78cf; stroke-width: 2; stroke-linecap: round"/>
    <path d="M 396.134911 569.962702 
L 390.134911 566.962702 
L 396.134911 563.962702 
z
" clip-path="url(#pfe89fc13c8)" style="fill: #2f78cf; stroke: #2f78cf; stroke-width: 2; stroke-linecap: round"/>
   </g>
   <g id="patch_20">
    <path d="M 273.312 257.912606 
Q 273.312 244.55937 273.312 234.113023 
" clip-path="url(#pfe89fc13c8)" style="fill: none; stroke: #2f78cf; stroke-width: 2.6; stroke-linecap: round"/>
    <path d="M 270.312 240.113023 
L 273.312 234.113023 
L 276.312 240.113023 
z
" clip-path="url(#pfe89fc13c8)" style="fill: #2f78cf; stroke: #2f78cf; stroke-width: 2.6; stroke-linecap: round"/>
   </g>
   <g id="patch_21">
    <path d="M 273.312 430.787578 
Q 273.312 446.698485 273.312 459.702504 
" clip-path="url(#pfe89fc13c8)" style="fill: none; stroke: #9c5a1c; stroke-width: 2.6; stroke-linecap: round"/>
    <path d="M 276.312 453.702504 
L 273.312 459.702504 
L 270.312 453.702504 
z
" clip-path="url(#pfe89fc13c8)" style="fill: #9c5a1c; stroke: #9c5a1c; stroke-width: 2.6; stroke-linecap: round"/>
   </g>
   <g id="patch_22">
    <path d="M 346.955328 479.964549 
Q 375.662629 479.964549 401.463041 479.964549 
" clip-path="url(#pfe89fc13c8)" style="fill: none; stroke: #9c5a1c; stroke-width: 2.6; stroke-linecap: round"/>
    <path d="M 395.463041 476.964549 
L 401.463041 479.964549 
L 395.463041 482.964549 
z
" clip-path="url(#pfe89fc13c8)" style="fill: #9c5a1c; stroke: #9c5a1c; stroke-width: 2.6; stroke-linecap: round"/>
   </g>
   <g id="patch_23">
    <path d="M 478.013538 449.259318 
L 495.924923 469.729472 
L 472.896 470.752979 
z
" clip-path="url(#pfe89fc13c8)" style="fill: #666666; stroke: #15151a; stroke-width: 1.2; stroke-linejoin: miter"/>
   </g>
   <g id="patch_24">
    <path d="M 618.084602 480.597057 
Q 639.217353 487.641307 657.380256 493.695608 
" clip-path="url(#pfe89fc13c8)" style="fill: none; stroke: #cf7e34; stroke-width: 2.8; stroke-linecap: round"/>
    <path d="M 652.63684 488.952192 
L 657.380256 493.695608 
L 650.739473 494.644292 
z
" clip-path="url(#pfe89fc13c8)" style="fill: #cf7e34; stroke: #cf7e34; stroke-width: 2.8; stroke-linecap: round"/>
   </g>
   <g id="patch_25">
    <path d="M 373.615754 554.68061 
L 398.179938 554.68061 
L 385.897846 579.244795 
z
" clip-path="url(#pfe89fc13c8)" style="fill: #ffffff; stroke: #2f78cf; stroke-width: 1.6; stroke-linejoin: miter"/>
   </g>
   <g id="patch_26">
    <path d="M 256.935877 233.299195 
L 289.688123 233.299195 
L 273.312 200.546949 
z
" clip-path="url(#pfe89fc13c8)" style="fill: #ffffff; stroke: #2f78cf; stroke-width: 1.6; stroke-linejoin: miter"/>
   </g>
   <g id="patch_27">
    <path d="M 25.111385 655.496118 
L 245.165538 655.496118 
Q 255.400615 655.496118 255.400615 645.261041 
L 255.400615 568.497964 
Q 255.400615 558.262887 245.165538 558.262887 
L 25.111385 558.262887 
Q 14.876308 558.262887 14.876308 568.497964 
L 14.876308 645.261041 
Q 14.876308 655.496118 25.111385 655.496118 
z
" clip-path="url(#pfe89fc13c8)" style="fill: #f4f4f6; stroke: #999999; stroke-linejoin: miter"/>
   </g>
   <g id="text_4">
    <!-- trigger travel  → -->
    <g transform="translate(89.547837 576.174272) scale(0.1 -0.1)">
     <defs>
      <path id="DejaVuSans-Bold-76" d="M 97 3500 
L 1216 3500 
L 2088 1081 
L 2956 3500 
L 4078 3500 
L 2700 0 
L 1472 0 
L 97 3500 
z
" transform="scale(0.015625)"/>
      <path id="DejaVuSans-Bold-2192" d="M 5050 2225 
L 5050 1788 
L 3822 559 
L 3369 1013 
L 3988 1631 
L 366 1631 
L 366 2381 
L 3988 2381 
L 3369 3000 
L 3822 3453 
L 5050 2225 
z
" transform="scale(0.015625)"/>
     </defs>
     <use xlink:href="#DejaVuSans-Bold-74"/>
     <use xlink:href="#DejaVuSans-Bold-72" transform="translate(47.802734 0)"/>
     <use xlink:href="#DejaVuSans-Bold-69" transform="translate(97.119141 0)"/>
     <use xlink:href="#DejaVuSans-Bold-67" transform="translate(131.396484 0)"/>
     <use xlink:href="#DejaVuSans-Bold-67" transform="translate(202.978516 0)"/>
     <use xlink:href="#DejaVuSans-Bold-65" transform="translate(274.560547 0)"/>
     <use xlink:href="#DejaVuSans-Bold-72" transform="translate(342.382812 0)"/>
     <use xlink:href="#DejaVuSans-Bold-20" transform="translate(391.699219 0)"/>
     <use xlink:href="#DejaVuSans-Bold-74" transform="translate(426.513672 0)"/>
     <use xlink:href="#DejaVuSans-Bold-72" transform="translate(474.316406 0)"/>
     <use xlink:href="#DejaVuSans-Bold-61" transform="translate(523.632812 0)"/>
     <use xlink:href="#DejaVuSans-Bold-76" transform="translate(591.113281 0)"/>
     <use xlink:href="#DejaVuSans-Bold-65" transform="translate(656.298828 0)"/>
     <use xlink:href="#DejaVuSans-Bold-6c" transform="translate(724.121094 0)"/>
     <use xlink:href="#DejaVuSans-Bold-20" transform="translate(758.398438 0)"/>
     <use xlink:href="#DejaVuSans-Bold-20" transform="translate(793.212891 0)"/>
     <use xlink:href="#DejaVuSans-Bold-2192" transform="translate(828.027344 0)"/>
    </g>
   </g>
   <g id="patch_28">
    <path d="M 37.905231 611.997041 
L 67.0752 611.997041 
L 67.0752 594.59741 
L 37.905231 594.59741 
z
" clip-path="url(#pfe89fc13c8)" style="fill: #cc4040"/>
   </g>
   <g id="patch_29">
    <path d="M 67.0752 611.997041 
L 105.968492 611.997041 
L 105.968492 594.59741 
L 67.0752 594.59741 
z
" clip-path="url(#pfe89fc13c8)" style="fill: #f0c020"/>
   </g>
   <g id="patch_30">
    <path d="M 105.968492 611.997041 
L 232.371692 611.997041 
L 232.371692 594.59741 
L 105.968492 594.59741 
z
" clip-path="url(#pfe89fc13c8)" style="fill: #52a05a"/>
   </g>
   <g id="text_5">
    <!-- release -->
    <g transform="translate(37.845032 616.392528) scale(0.075 -0.075)">
     <defs>
      <path id="DejaVuSans-72" d="M 2631 2963 
Q 2534 3019 2420 3045 
Q 2306 3072 2169 3072 
Q 1681 3072 1420 2755 
Q 1159 2438 1159 1844 
L 1159 0 
L 581 0 
L 581 3500 
L 1159 3500 
L 1159 2956 
Q 1341 3275 1631 3429 
Q 1922 3584 2338 3584 
Q 2397 3584 2469 3576 
Q 2541 3569 2628 3553 
L 2631 2963 
z
" transform="scale(0.015625)"/>
      <path id="DejaVuSans-65" d="M 3597 1894 
L 3597 1613 
L 953 1613 
Q 991 1019 1311 708 
Q 1631 397 2203 397 
Q 2534 397 2845 478 
Q 3156 559 3463 722 
L 3463 178 
Q 3153 47 2828 -22 
Q 2503 -91 2169 -91 
Q 1331 -91 842 396 
Q 353 884 353 1716 
Q 353 2575 817 3079 
Q 1281 3584 2069 3584 
Q 2775 3584 3186 3129 
Q 3597 2675 3597 1894 
z
M 3022 2063 
Q 3016 2534 2758 2815 
Q 2500 3097 2075 3097 
Q 1594 3097 1305 2825 
Q 1016 2553 972 2059 
L 3022 2063 
z
" transform="scale(0.015625)"/>
      <path id="DejaVuSans-6c" d="M 603 4863 
L 1178 4863 
L 1178 0 
L 603 0 
L 603 4863 
z
" transform="scale(0.015625)"/>
      <path id="DejaVuSans-61" d="M 2194 1759 
Q 1497 1759 1228 1600 
Q 959 1441 959 1056 
Q 959 750 1161 570 
Q 1363 391 1709 391 
Q 2188 391 2477 730 
Q 2766 1069 2766 1631 
L 2766 1759 
L 2194 1759 
z
M 3341 1997 
L 3341 0 
L 2766 0 
L 2766 531 
Q 2569 213 2275 61 
Q 1981 -91 1556 -91 
Q 1019 -91 701 211 
Q 384 513 384 1019 
Q 384 1609 779 1909 
Q 1175 2209 1959 2209 
L 2766 2209 
L 2766 2266 
Q 2766 2663 2505 2880 
Q 2244 3097 1772 3097 
Q 1472 3097 1187 3025 
Q 903 2953 641 2809 
L 641 3341 
Q 956 3463 1253 3523 
Q 1550 3584 1831 3584 
Q 2591 3584 2966 3190 
Q 3341 2797 3341 1997 
z
" transform="scale(0.015625)"/>
      <path id="DejaVuSans-73" d="M 2834 3397 
L 2834 2853 
Q 2591 2978 2328 3040 
Q 2066 3103 1784 3103 
Q 1356 3103 1142 2972 
Q 928 2841 928 2578 
Q 928 2378 1081 2264 
Q 1234 2150 1697 2047 
L 1894 2003 
Q 2506 1872 2764 1633 
Q 3022 1394 3022 966 
Q 3022 478 2636 193 
Q 2250 -91 1575 -91 
Q 1294 -91 989 -36 
Q 684 19 347 128 
L 347 722 
Q 666 556 975 473 
Q 1284 391 1588 391 
Q 1994 391 2212 530 
Q 2431 669 2431 922 
Q 2431 1156 2273 1281 
Q 2116 1406 1581 1522 
L 1381 1569 
Q 847 1681 609 1914 
Q 372 2147 372 2553 
Q 372 3047 722 3315 
Q 1072 3584 1716 3584 
Q 2034 3584 2315 3537 
Q 2597 3491 2834 3397 
z
" transform="scale(0.015625)"/>
     </defs>
     <use xlink:href="#DejaVuSans-72"/>
     <use xlink:href="#DejaVuSans-65" transform="translate(38.863281 0)"/>
     <use xlink:href="#DejaVuSans-6c" transform="translate(100.386719 0)"/>
     <use xlink:href="#DejaVuSans-65" transform="translate(128.169922 0)"/>
     <use xlink:href="#DejaVuSans-61" transform="translate(189.693359 0)"/>
     <use xlink:href="#DejaVuSans-73" transform="translate(250.972656 0)"/>
     <use xlink:href="#DejaVuSans-65" transform="translate(303.072266 0)"/>
    </g>
    <!-- = CLOSED -->
    <g transform="translate(32.021985 624.790887) scale(0.075 -0.075)">
     <defs>
      <path id="DejaVuSans-3d" d="M 678 2906 
L 4684 2906 
L 4684 2381 
L 678 2381 
L 678 2906 
z
M 678 1631 
L 4684 1631 
L 4684 1100 
L 678 1100 
L 678 1631 
z
" transform="scale(0.015625)"/>
      <path id="DejaVuSans-20" transform="scale(0.015625)"/>
      <path id="DejaVuSans-43" d="M 4122 4306 
L 4122 3641 
Q 3803 3938 3442 4084 
Q 3081 4231 2675 4231 
Q 1875 4231 1450 3742 
Q 1025 3253 1025 2328 
Q 1025 1406 1450 917 
Q 1875 428 2675 428 
Q 3081 428 3442 575 
Q 3803 722 4122 1019 
L 4122 359 
Q 3791 134 3420 21 
Q 3050 -91 2638 -91 
Q 1578 -91 968 557 
Q 359 1206 359 2328 
Q 359 3453 968 4101 
Q 1578 4750 2638 4750 
Q 3056 4750 3426 4639 
Q 3797 4528 4122 4306 
z
" transform="scale(0.015625)"/>
      <path id="DejaVuSans-4c" d="M 628 4666 
L 1259 4666 
L 1259 531 
L 3531 531 
L 3531 0 
L 628 0 
L 628 4666 
z
" transform="scale(0.015625)"/>
      <path id="DejaVuSans-4f" d="M 2522 4238 
Q 1834 4238 1429 3725 
Q 1025 3213 1025 2328 
Q 1025 1447 1429 934 
Q 1834 422 2522 422 
Q 3209 422 3611 934 
Q 4013 1447 4013 2328 
Q 4013 3213 3611 3725 
Q 3209 4238 2522 4238 
z
M 2522 4750 
Q 3503 4750 4090 4092 
Q 4678 3434 4678 2328 
Q 4678 1225 4090 567 
Q 3503 -91 2522 -91 
Q 1538 -91 948 565 
Q 359 1222 359 2328 
Q 359 3434 948 4092 
Q 1538 4750 2522 4750 
z
" transform="scale(0.015625)"/>
      <path id="DejaVuSans-53" d="M 3425 4513 
L 3425 3897 
Q 3066 4069 2747 4153 
Q 2428 4238 2131 4238 
Q 1616 4238 1336 4038 
Q 1056 3838 1056 3469 
Q 1056 3159 1242 3001 
Q 1428 2844 1947 2747 
L 2328 2669 
Q 3034 2534 3370 2195 
Q 3706 1856 3706 1288 
Q 3706 609 3251 259 
Q 2797 -91 1919 -91 
Q 1588 -91 1214 -16 
Q 841 59 441 206 
L 441 856 
Q 825 641 1194 531 
Q 1563 422 1919 422 
Q 2459 422 2753 634 
Q 3047 847 3047 1241 
Q 3047 1584 2836 1778 
Q 2625 1972 2144 2069 
L 1759 2144 
Q 1053 2284 737 2584 
Q 422 2884 422 3419 
Q 422 4038 858 4394 
Q 1294 4750 2059 4750 
Q 2388 4750 2728 4690 
Q 3069 4631 3425 4513 
z
" transform="scale(0.015625)"/>
      <path id="DejaVuSans-45" d="M 628 4666 
L 3578 4666 
L 3578 4134 
L 1259 4134 
L 1259 2753 
L 3481 2753 
L 3481 2222 
L 1259 2222 
L 1259 531 
L 3634 531 
L 3634 0 
L 628 0 
L 628 4666 
z
" transform="scale(0.015625)"/>
      <path id="DejaVuSans-44" d="M 1259 4147 
L 1259 519 
L 2022 519 
Q 2988 519 3436 956 
Q 3884 1394 3884 2338 
Q 3884 3275 3436 3711 
Q 2988 4147 2022 4147 
L 1259 4147 
z
M 628 4666 
L 1925 4666 
Q 3281 4666 3915 4102 
Q 4550 3538 4550 2338 
Q 4550 1131 3912 565 
Q 3275 0 1925 0 
L 628 0 
L 628 4666 
z
" transform="scale(0.015625)"/>
     </defs>
     <use xlink:href="#DejaVuSans-3d"/>
     <use xlink:href="#DejaVuSans-20" transform="translate(83.789062 0)"/>
     <use xlink:href="#DejaVuSans-43" transform="translate(115.576172 0)"/>
     <use xlink:href="#DejaVuSans-4c" transform="translate(185.400391 0)"/>
     <use xlink:href="#DejaVuSans-4f" transform="translate(237.488281 0)"/>
     <use xlink:href="#DejaVuSans-53" transform="translate(316.199219 0)"/>
     <use xlink:href="#DejaVuSans-45" transform="translate(379.675781 0)"/>
     <use xlink:href="#DejaVuSans-44" transform="translate(442.859375 0)"/>
    </g>
   </g>
   <g id="text_6">
    <!-- valve -->
    <g transform="translate(76.435518 580.569758) scale(0.075 -0.075)">
     <defs>
      <path id="DejaVuSans-76" d="M 191 3500 
L 800 3500 
L 1894 563 
L 2988 3500 
L 3597 3500 
L 2284 0 
L 1503 0 
L 191 3500 
z
" transform="scale(0.015625)"/>
     </defs>
     <use xlink:href="#DejaVuSans-76"/>
     <use xlink:href="#DejaVuSans-61" transform="translate(59.179688 0)"/>
     <use xlink:href="#DejaVuSans-6c" transform="translate(120.458984 0)"/>
     <use xlink:href="#DejaVuSans-76" transform="translate(148.242188 0)"/>
     <use xlink:href="#DejaVuSans-65" transform="translate(207.421875 0)"/>
    </g>
    <!-- opens -->
    <g transform="translate(75.209151 588.968118) scale(0.075 -0.075)">
     <defs>
      <path id="DejaVuSans-6f" d="M 1959 3097 
Q 1497 3097 1228 2736 
Q 959 2375 959 1747 
Q 959 1119 1226 758 
Q 1494 397 1959 397 
Q 2419 397 2687 759 
Q 2956 1122 2956 1747 
Q 2956 2369 2687 2733 
Q 2419 3097 1959 3097 
z
M 1959 3584 
Q 2709 3584 3137 3096 
Q 3566 2609 3566 1747 
Q 3566 888 3137 398 
Q 2709 -91 1959 -91 
Q 1206 -91 779 398 
Q 353 888 353 1747 
Q 353 2609 779 3096 
Q 1206 3584 1959 3584 
z
" transform="scale(0.015625)"/>
      <path id="DejaVuSans-70" d="M 1159 525 
L 1159 -1331 
L 581 -1331 
L 581 3500 
L 1159 3500 
L 1159 2969 
Q 1341 3281 1617 3432 
Q 1894 3584 2278 3584 
Q 2916 3584 3314 3078 
Q 3713 2572 3713 1747 
Q 3713 922 3314 415 
Q 2916 -91 2278 -91 
Q 1894 -91 1617 61 
Q 1341 213 1159 525 
z
M 3116 1747 
Q 3116 2381 2855 2742 
Q 2594 3103 2138 3103 
Q 1681 3103 1420 2742 
Q 1159 2381 1159 1747 
Q 1159 1113 1420 752 
Q 1681 391 2138 391 
Q 2594 391 2855 752 
Q 3116 1113 3116 1747 
z
" transform="scale(0.015625)"/>
      <path id="DejaVuSans-6e" d="M 3513 2113 
L 3513 0 
L 2938 0 
L 2938 2094 
Q 2938 2591 2744 2837 
Q 2550 3084 2163 3084 
Q 1697 3084 1428 2787 
Q 1159 2491 1159 1978 
L 1159 0 
L 581 0 
L 581 3500 
L 1159 3500 
L 1159 2956 
Q 1366 3272 1645 3428 
Q 1925 3584 2291 3584 
Q 2894 3584 3203 3211 
Q 3513 2838 3513 2113 
z
" transform="scale(0.015625)"/>
     </defs>
     <use xlink:href="#DejaVuSans-6f"/>
     <use xlink:href="#DejaVuSans-70" transform="translate(61.181641 0)"/>
     <use xlink:href="#DejaVuSans-65" transform="translate(124.658203 0)"/>
     <use xlink:href="#DejaVuSans-6e" transform="translate(186.181641 0)"/>
     <use xlink:href="#DejaVuSans-73" transform="translate(249.560547 0)"/>
    </g>
   </g>
   <g id="text_7">
    <!-- half-pump here = flow + pressure -->
    <g transform="translate(100.375885 624.790887) scale(0.08 -0.08)">
     <defs>
      <path id="DejaVuSans-68" d="M 3513 2113 
L 3513 0 
L 2938 0 
L 2938 2094 
Q 2938 2591 2744 2837 
Q 2550 3084 2163 3084 
Q 1697 3084 1428 2787 
Q 1159 2491 1159 1978 
L 1159 0 
L 581 0 
L 581 4863 
L 1159 4863 
L 1159 2956 
Q 1366 3272 1645 3428 
Q 1925 3584 2291 3584 
Q 2894 3584 3203 3211 
Q 3513 2838 3513 2113 
z
" transform="scale(0.015625)"/>
      <path id="DejaVuSans-66" d="M 2375 4863 
L 2375 4384 
L 1825 4384 
Q 1516 4384 1395 4259 
Q 1275 4134 1275 3809 
L 1275 3500 
L 2222 3500 
L 2222 3053 
L 1275 3053 
L 1275 0 
L 697 0 
L 697 3053 
L 147 3053 
L 147 3500 
L 697 3500 
L 697 3744 
Q 697 4328 969 4595 
Q 1241 4863 1831 4863 
L 2375 4863 
z
" transform="scale(0.015625)"/>
      <path id="DejaVuSans-2d" d="M 313 2009 
L 1997 2009 
L 1997 1497 
L 313 1497 
L 313 2009 
z
" transform="scale(0.015625)"/>
      <path id="DejaVuSans-75" d="M 544 1381 
L 544 3500 
L 1119 3500 
L 1119 1403 
Q 1119 906 1312 657 
Q 1506 409 1894 409 
Q 2359 409 2629 706 
Q 2900 1003 2900 1516 
L 2900 3500 
L 3475 3500 
L 3475 0 
L 2900 0 
L 2900 538 
Q 2691 219 2414 64 
Q 2138 -91 1772 -91 
Q 1169 -91 856 284 
Q 544 659 544 1381 
z
M 1991 3584 
L 1991 3584 
z
" transform="scale(0.015625)"/>
      <path id="DejaVuSans-6d" d="M 3328 2828 
Q 3544 3216 3844 3400 
Q 4144 3584 4550 3584 
Q 5097 3584 5394 3201 
Q 5691 2819 5691 2113 
L 5691 0 
L 5113 0 
L 5113 2094 
Q 5113 2597 4934 2840 
Q 4756 3084 4391 3084 
Q 3944 3084 3684 2787 
Q 3425 2491 3425 1978 
L 3425 0 
L 2847 0 
L 2847 2094 
Q 2847 2600 2669 2842 
Q 2491 3084 2119 3084 
Q 1678 3084 1418 2786 
Q 1159 2488 1159 1978 
L 1159 0 
L 581 0 
L 581 3500 
L 1159 3500 
L 1159 2956 
Q 1356 3278 1631 3431 
Q 1906 3584 2284 3584 
Q 2666 3584 2933 3390 
Q 3200 3197 3328 2828 
z
" transform="scale(0.015625)"/>
      <path id="DejaVuSans-77" d="M 269 3500 
L 844 3500 
L 1563 769 
L 2278 3500 
L 2956 3500 
L 3675 769 
L 4391 3500 
L 4966 3500 
L 4050 0 
L 3372 0 
L 2619 2869 
L 1863 0 
L 1184 0 
L 269 3500 
z
" transform="scale(0.015625)"/>
      <path id="DejaVuSans-2b" d="M 2944 4013 
L 2944 2272 
L 4684 2272 
L 4684 1741 
L 2944 1741 
L 2944 0 
L 2419 0 
L 2419 1741 
L 678 1741 
L 678 2272 
L 2419 2272 
L 2419 4013 
L 2944 4013 
z
" transform="scale(0.015625)"/>
     </defs>
     <use xlink:href="#DejaVuSans-68"/>
     <use xlink:href="#DejaVuSans-61" transform="translate(63.378906 0)"/>
     <use xlink:href="#DejaVuSans-6c" transform="translate(124.658203 0)"/>
     <use xlink:href="#DejaVuSans-66" transform="translate(152.441406 0)"/>
     <use xlink:href="#DejaVuSans-2d" transform="translate(182.146484 0)"/>
     <use xlink:href="#DejaVuSans-70" transform="translate(218.230469 0)"/>
     <use xlink:href="#DejaVuSans-75" transform="translate(281.707031 0)"/>
     <use xlink:href="#DejaVuSans-6d" transform="translate(345.085938 0)"/>
     <use xlink:href="#DejaVuSans-70" transform="translate(442.498047 0)"/>
     <use xlink:href="#DejaVuSans-20" transform="translate(505.974609 0)"/>
     <use xlink:href="#DejaVuSans-68" transform="translate(537.761719 0)"/>
     <use xlink:href="#DejaVuSans-65" transform="translate(601.140625 0)"/>
     <use xlink:href="#DejaVuSans-72" transform="translate(662.664062 0)"/>
     <use xlink:href="#DejaVuSans-65" transform="translate(701.527344 0)"/>
     <use xlink:href="#DejaVuSans-20" transform="translate(763.050781 0)"/>
     <use xlink:href="#DejaVuSans-3d" transform="translate(794.837891 0)"/>
     <use xlink:href="#DejaVuSans-20" transform="translate(878.626953 0)"/>
     <use xlink:href="#DejaVuSans-66" transform="translate(910.414062 0)"/>
     <use xlink:href="#DejaVuSans-6c" transform="translate(945.619141 0)"/>
     <use xlink:href="#DejaVuSans-6f" transform="translate(973.402344 0)"/>
     <use xlink:href="#DejaVuSans-77" transform="translate(1034.583984 0)"/>
     <use xlink:href="#DejaVuSans-20" transform="translate(1116.371094 0)"/>
     <use xlink:href="#DejaVuSans-2b" transform="translate(1148.158203 0)"/>
     <use xlink:href="#DejaVuSans-20" transform="translate(1231.947266 0)"/>
     <use xlink:href="#DejaVuSans-70" transform="translate(1263.734375 0)"/>
     <use xlink:href="#DejaVuSans-72" transform="translate(1327.210938 0)"/>
     <use xlink:href="#DejaVuSans-65" transform="translate(1366.074219 0)"/>
     <use xlink:href="#DejaVuSans-73" transform="translate(1427.597656 0)"/>
     <use xlink:href="#DejaVuSans-73" transform="translate(1479.697266 0)"/>
     <use xlink:href="#DejaVuSans-75" transform="translate(1531.796875 0)"/>
     <use xlink:href="#DejaVuSans-72" transform="translate(1595.175781 0)"/>
     <use xlink:href="#DejaVuSans-65" transform="translate(1634.039062 0)"/>
    </g>
   </g>
   <g id="patch_31">
    <path d="M 135.343338 138.624733 
Q 177.995395 138.624733 220.647451 138.624733 
" style="fill: none; stroke: #666666; stroke-linecap: round"/>
   </g>
   <g id="text_8">
    <!-- Inverted Gatorade bottle -->
    <g style="fill: #111111" transform="translate(7.2 135.785202) scale(0.1 -0.1)">
     <defs>
      <path id="DejaVuSans-49" d="M 628 4666 
L 1259 4666 
L 1259 0 
L 628 0 
L 628 4666 
z
" transform="scale(0.015625)"/>
      <path id="DejaVuSans-74" d="M 1172 4494 
L 1172 3500 
L 2356 3500 
L 2356 3053 
L 1172 3053 
L 1172 1153 
Q 1172 725 1289 603 
Q 1406 481 1766 481 
L 2356 481 
L 2356 0 
L 1766 0 
Q 1100 0 847 248 
Q 594 497 594 1153 
L 594 3053 
L 172 3053 
L 172 3500 
L 594 3500 
L 594 4494 
L 1172 4494 
z
" transform="scale(0.015625)"/>
      <path id="DejaVuSans-64" d="M 2906 2969 
L 2906 4863 
L 3481 4863 
L 3481 0 
L 2906 0 
L 2906 525 
Q 2725 213 2448 61 
Q 2172 -91 1784 -91 
Q 1150 -91 751 415 
Q 353 922 353 1747 
Q 353 2572 751 3078 
Q 1150 3584 1784 3584 
Q 2172 3584 2448 3432 
Q 2725 3281 2906 2969 
z
M 947 1747 
Q 947 1113 1208 752 
Q 1469 391 1925 391 
Q 2381 391 2643 752 
Q 2906 1113 2906 1747 
Q 2906 2381 2643 2742 
Q 2381 3103 1925 3103 
Q 1469 3103 1208 2742 
Q 947 2381 947 1747 
z
" transform="scale(0.015625)"/>
      <path id="DejaVuSans-47" d="M 3809 666 
L 3809 1919 
L 2778 1919 
L 2778 2438 
L 4434 2438 
L 4434 434 
Q 4069 175 3628 42 
Q 3188 -91 2688 -91 
Q 1594 -91 976 548 
Q 359 1188 359 2328 
Q 359 3472 976 4111 
Q 1594 4750 2688 4750 
Q 3144 4750 3555 4637 
Q 3966 4525 4313 4306 
L 4313 3634 
Q 3963 3931 3569 4081 
Q 3175 4231 2741 4231 
Q 1884 4231 1454 3753 
Q 1025 3275 1025 2328 
Q 1025 1384 1454 906 
Q 1884 428 2741 428 
Q 3075 428 3337 486 
Q 3600 544 3809 666 
z
" transform="scale(0.015625)"/>
      <path id="DejaVuSans-62" d="M 3116 1747 
Q 3116 2381 2855 2742 
Q 2594 3103 2138 3103 
Q 1681 3103 1420 2742 
Q 1159 2381 1159 1747 
Q 1159 1113 1420 752 
Q 1681 391 2138 391 
Q 2594 391 2855 752 
Q 3116 1113 3116 1747 
z
M 1159 2969 
Q 1341 3281 1617 3432 
Q 1894 3584 2278 3584 
Q 2916 3584 3314 3078 
Q 3713 2572 3713 1747 
Q 3713 922 3314 415 
Q 2916 -91 2278 -91 
Q 1894 -91 1617 61 
Q 1341 213 1159 525 
L 1159 0 
L 581 0 
L 581 4863 
L 1159 4863 
L 1159 2969 
z
" transform="scale(0.015625)"/>
     </defs>
     <use xlink:href="#DejaVuSans-49"/>
     <use xlink:href="#DejaVuSans-6e" transform="translate(29.492188 0)"/>
     <use xlink:href="#DejaVuSans-76" transform="translate(92.871094 0)"/>
     <use xlink:href="#DejaVuSans-65" transform="translate(152.050781 0)"/>
     <use xlink:href="#DejaVuSans-72" transform="translate(213.574219 0)"/>
     <use xlink:href="#DejaVuSans-74" transform="translate(254.6875 0)"/>
     <use xlink:href="#DejaVuSans-65" transform="translate(293.896484 0)"/>
     <use xlink:href="#DejaVuSans-64" transform="translate(355.419922 0)"/>
     <use xlink:href="#DejaVuSans-20" transform="translate(418.896484 0)"/>
     <use xlink:href="#DejaVuSans-47" transform="translate(450.683594 0)"/>
     <use xlink:href="#DejaVuSans-61" transform="translate(528.173828 0)"/>
     <use xlink:href="#DejaVuSans-74" transform="translate(589.453125 0)"/>
     <use xlink:href="#DejaVuSans-6f" transform="translate(628.662109 0)"/>
     <use xlink:href="#DejaVuSans-72" transform="translate(689.84375 0)"/>
     <use xlink:href="#DejaVuSans-61" transform="translate(730.957031 0)"/>
     <use xlink:href="#DejaVuSans-64" transform="translate(792.236328 0)"/>
     <use xlink:href="#DejaVuSans-65" transform="translate(855.712891 0)"/>
     <use xlink:href="#DejaVuSans-20" transform="translate(917.236328 0)"/>
     <use xlink:href="#DejaVuSans-62" transform="translate(949.023438 0)"/>
     <use xlink:href="#DejaVuSans-6f" transform="translate(1012.5 0)"/>
     <use xlink:href="#DejaVuSans-74" transform="translate(1073.681641 0)"/>
     <use xlink:href="#DejaVuSans-74" transform="translate(1112.890625 0)"/>
     <use xlink:href="#DejaVuSans-6c" transform="translate(1152.099609 0)"/>
     <use xlink:href="#DejaVuSans-65" transform="translate(1179.882812 0)"/>
    </g>
    <!-- (paint reservoir) -->
    <g style="fill: #111111" transform="translate(7.2 146.983014) scale(0.1 -0.1)">
     <defs>
      <path id="DejaVuSans-28" d="M 1984 4856 
Q 1566 4138 1362 3434 
Q 1159 2731 1159 2009 
Q 1159 1288 1364 580 
Q 1569 -128 1984 -844 
L 1484 -844 
Q 1016 -109 783 600 
Q 550 1309 550 2009 
Q 550 2706 781 3412 
Q 1013 4119 1484 4856 
L 1984 4856 
z
" transform="scale(0.015625)"/>
      <path id="DejaVuSans-69" d="M 603 3500 
L 1178 3500 
L 1178 0 
L 603 0 
L 603 3500 
z
M 603 4863 
L 1178 4863 
L 1178 4134 
L 603 4134 
L 603 4863 
z
" transform="scale(0.015625)"/>
      <path id="DejaVuSans-29" d="M 513 4856 
L 1013 4856 
Q 1481 4119 1714 3412 
Q 1947 2706 1947 2009 
Q 1947 1309 1714 600 
Q 1481 -109 1013 -844 
L 513 -844 
Q 928 -128 1133 580 
Q 1338 1288 1338 2009 
Q 1338 2731 1133 3434 
Q 928 4138 513 4856 
z
" transform="scale(0.015625)"/>
     </defs>
     <use xlink:href="#DejaVuSans-28"/>
     <use xlink:href="#DejaVuSans-70" transform="translate(39.013672 0)"/>
     <use xlink:href="#DejaVuSans-61" transform="translate(102.490234 0)"/>
     <use xlink:href="#DejaVuSans-69" transform="translate(163.769531 0)"/>
     <use xlink:href="#DejaVuSans-6e" transform="translate(191.552734 0)"/>
     <use xlink:href="#DejaVuSans-74" transform="translate(254.931641 0)"/>
     <use xlink:href="#DejaVuSans-20" transform="translate(294.140625 0)"/>
     <use xlink:href="#DejaVuSans-72" transform="translate(325.927734 0)"/>
     <use xlink:href="#DejaVuSans-65" transform="translate(364.791016 0)"/>
     <use xlink:href="#DejaVuSans-73" transform="translate(426.314453 0)"/>
     <use xlink:href="#DejaVuSans-65" transform="translate(478.414062 0)"/>
     <use xlink:href="#DejaVuSans-72" transform="translate(539.9375 0)"/>
     <use xlink:href="#DejaVuSans-76" transform="translate(581.050781 0)"/>
     <use xlink:href="#DejaVuSans-6f" transform="translate(640.230469 0)"/>
     <use xlink:href="#DejaVuSans-69" transform="translate(701.412109 0)"/>
     <use xlink:href="#DejaVuSans-72" transform="translate(729.195312 0)"/>
     <use xlink:href="#DejaVuSans-29" transform="translate(770.308594 0)"/>
    </g>
   </g>
   <g id="patch_32">
    <path d="M 92.931664 404.426799 
Q 163.188826 406.345644 233.445989 408.26449 
" style="fill: none; stroke: #666666; stroke-linecap: round"/>
   </g>
   <g id="text_9">
    <!-- O-ring neck seal -->
    <g style="fill: #111111" transform="translate(7.2 405.960847) scale(0.1 -0.1)">
     <defs>
      <path id="DejaVuSans-67" d="M 2906 1791 
Q 2906 2416 2648 2759 
Q 2391 3103 1925 3103 
Q 1463 3103 1205 2759 
Q 947 2416 947 1791 
Q 947 1169 1205 825 
Q 1463 481 1925 481 
Q 2391 481 2648 825 
Q 2906 1169 2906 1791 
z
M 3481 434 
Q 3481 -459 3084 -895 
Q 2688 -1331 1869 -1331 
Q 1566 -1331 1297 -1286 
Q 1028 -1241 775 -1147 
L 775 -588 
Q 1028 -725 1275 -790 
Q 1522 -856 1778 -856 
Q 2344 -856 2625 -561 
Q 2906 -266 2906 331 
L 2906 616 
Q 2728 306 2450 153 
Q 2172 0 1784 0 
Q 1141 0 747 490 
Q 353 981 353 1791 
Q 353 2603 747 3093 
Q 1141 3584 1784 3584 
Q 2172 3584 2450 3431 
Q 2728 3278 2906 2969 
L 2906 3500 
L 3481 3500 
L 3481 434 
z
" transform="scale(0.015625)"/>
      <path id="DejaVuSans-63" d="M 3122 3366 
L 3122 2828 
Q 2878 2963 2633 3030 
Q 2388 3097 2138 3097 
Q 1578 3097 1268 2742 
Q 959 2388 959 1747 
Q 959 1106 1268 751 
Q 1578 397 2138 397 
Q 2388 397 2633 464 
Q 2878 531 3122 666 
L 3122 134 
Q 2881 22 2623 -34 
Q 2366 -91 2075 -91 
Q 1284 -91 818 406 
Q 353 903 353 1747 
Q 353 2603 823 3093 
Q 1294 3584 2113 3584 
Q 2378 3584 2631 3529 
Q 2884 3475 3122 3366 
z
" transform="scale(0.015625)"/>
      <path id="DejaVuSans-6b" d="M 581 4863 
L 1159 4863 
L 1159 1991 
L 2875 3500 
L 3609 3500 
L 1753 1863 
L 3688 0 
L 2938 0 
L 1159 1709 
L 1159 0 
L 581 0 
L 581 4863 
z
" transform="scale(0.015625)"/>
     </defs>
     <use xlink:href="#DejaVuSans-4f"/>
     <use xlink:href="#DejaVuSans-2d" transform="translate(81.460938 0)"/>
     <use xlink:href="#DejaVuSans-72" transform="translate(117.544922 0)"/>
     <use xlink:href="#DejaVuSans-69" transform="translate(158.658203 0)"/>
     <use xlink:href="#DejaVuSans-6e" transform="translate(186.441406 0)"/>
     <use xlink:href="#DejaVuSans-67" transform="translate(249.820312 0)"/>
     <use xlink:href="#DejaVuSans-20" transform="translate(313.296875 0)"/>
     <use xlink:href="#DejaVuSans-6e" transform="translate(345.083984 0)"/>
     <use xlink:href="#DejaVuSans-65" transform="translate(408.462891 0)"/>
     <use xlink:href="#DejaVuSans-63" transform="translate(469.986328 0)"/>
     <use xlink:href="#DejaVuSans-6b" transform="translate(524.966797 0)"/>
     <use xlink:href="#DejaVuSans-20" transform="translate(582.876953 0)"/>
     <use xlink:href="#DejaVuSans-73" transform="translate(614.664062 0)"/>
     <use xlink:href="#DejaVuSans-65" transform="translate(666.763672 0)"/>
     <use xlink:href="#DejaVuSans-61" transform="translate(728.287109 0)"/>
     <use xlink:href="#DejaVuSans-6c" transform="translate(789.566406 0)"/>
    </g>
   </g>
   <g id="patch_33">
    <path d="M 93.72054 456.600728 
Q 172.342772 427.687435 250.965003 398.774141 
" style="fill: none; stroke: #666666; stroke-linecap: round"/>
   </g>
   <g id="text_10">
    <!-- Pressure-relief valve -->
    <g style="fill: #111111" transform="translate(7.2 466.88994) scale(0.1 -0.1)">
     <defs>
      <path id="DejaVuSans-50" d="M 1259 4147 
L 1259 2394 
L 2053 2394 
Q 2494 2394 2734 2622 
Q 2975 2850 2975 3272 
Q 2975 3691 2734 3919 
Q 2494 4147 2053 4147 
L 1259 4147 
z
M 628 4666 
L 2053 4666 
Q 2838 4666 3239 4311 
Q 3641 3956 3641 3272 
Q 3641 2581 3239 2228 
Q 2838 1875 2053 1875 
L 1259 1875 
L 1259 0 
L 628 0 
L 628 4666 
z
" transform="scale(0.015625)"/>
     </defs>
     <use xlink:href="#DejaVuSans-50"/>
     <use xlink:href="#DejaVuSans-72" transform="translate(58.552734 0)"/>
     <use xlink:href="#DejaVuSans-65" transform="translate(97.416016 0)"/>
     <use xlink:href="#DejaVuSans-73" transform="translate(158.939453 0)"/>
     <use xlink:href="#DejaVuSans-73" transform="translate(211.039062 0)"/>
     <use xlink:href="#DejaVuSans-75" transform="translate(263.138672 0)"/>
     <use xlink:href="#DejaVuSans-72" transform="translate(326.517578 0)"/>
     <use xlink:href="#DejaVuSans-65" transform="translate(365.380859 0)"/>
     <use xlink:href="#DejaVuSans-2d" transform="translate(426.904297 0)"/>
     <use xlink:href="#DejaVuSans-72" transform="translate(462.988281 0)"/>
     <use xlink:href="#DejaVuSans-65" transform="translate(501.851562 0)"/>
     <use xlink:href="#DejaVuSans-6c" transform="translate(563.375 0)"/>
     <use xlink:href="#DejaVuSans-69" transform="translate(591.158203 0)"/>
     <use xlink:href="#DejaVuSans-65" transform="translate(618.941406 0)"/>
     <use xlink:href="#DejaVuSans-66" transform="translate(680.464844 0)"/>
     <use xlink:href="#DejaVuSans-20" transform="translate(715.669922 0)"/>
     <use xlink:href="#DejaVuSans-76" transform="translate(747.457031 0)"/>
     <use xlink:href="#DejaVuSans-61" transform="translate(806.636719 0)"/>
     <use xlink:href="#DejaVuSans-6c" transform="translate(867.916016 0)"/>
     <use xlink:href="#DejaVuSans-76" transform="translate(895.699219 0)"/>
     <use xlink:href="#DejaVuSans-65" transform="translate(954.878906 0)"/>
    </g>
    <!-- ("pressure check") -->
    <g style="fill: #111111" transform="translate(7.2 478.087753) scale(0.1 -0.1)">
     <defs>
      <path id="DejaVuSans-22" d="M 1147 4666 
L 1147 2931 
L 616 2931 
L 616 4666 
L 1147 4666 
z
M 2328 4666 
L 2328 2931 
L 1797 2931 
L 1797 4666 
L 2328 4666 
z
" transform="scale(0.015625)"/>
     </defs>
     <use xlink:href="#DejaVuSans-28"/>
     <use xlink:href="#DejaVuSans-22" transform="translate(39.013672 0)"/>
     <use xlink:href="#DejaVuSans-70" transform="translate(85.009766 0)"/>
     <use xlink:href="#DejaVuSans-72" transform="translate(148.486328 0)"/>
     <use xlink:href="#DejaVuSans-65" transform="translate(187.349609 0)"/>
     <use xlink:href="#DejaVuSans-73" transform="translate(248.873047 0)"/>
     <use xlink:href="#DejaVuSans-73" transform="translate(300.972656 0)"/>
     <use xlink:href="#DejaVuSans-75" transform="translate(353.072266 0)"/>
     <use xlink:href="#DejaVuSans-72" transform="translate(416.451172 0)"/>
     <use xlink:href="#DejaVuSans-65" transform="translate(455.314453 0)"/>
     <use xlink:href="#DejaVuSans-20" transform="translate(516.837891 0)"/>
     <use xlink:href="#DejaVuSans-63" transform="translate(548.625 0)"/>
     <use xlink:href="#DejaVuSans-68" transform="translate(603.605469 0)"/>
     <use xlink:href="#DejaVuSans-65" transform="translate(666.984375 0)"/>
     <use xlink:href="#DejaVuSans-63" transform="translate(728.507812 0)"/>
     <use xlink:href="#DejaVuSans-6b" transform="translate(783.488281 0)"/>
     <use xlink:href="#DejaVuSans-22" transform="translate(841.398438 0)"/>
     <use xlink:href="#DejaVuSans-29" transform="translate(887.394531 0)"/>
    </g>
   </g>
   <g id="patch_34">
    <path d="M 45.682572 550.421901 
Q 171.292343 543.395557 296.902115 536.369212 
" style="fill: none; stroke: #666666; stroke-linecap: round"/>
   </g>
   <g id="text_11">
    <!-- Trigger -->
    <g style="fill: #111111" transform="translate(7.2 554.369462) scale(0.1 -0.1)">
     <defs>
      <path id="DejaVuSans-54" d="M -19 4666 
L 3928 4666 
L 3928 4134 
L 2272 4134 
L 2272 0 
L 1638 0 
L 1638 4134 
L -19 4134 
L -19 4666 
z
" transform="scale(0.015625)"/>
     </defs>
     <use xlink:href="#DejaVuSans-54"/>
     <use xlink:href="#DejaVuSans-72" transform="translate(46.333984 0)"/>
     <use xlink:href="#DejaVuSans-69" transform="translate(87.447266 0)"/>
     <use xlink:href="#DejaVuSans-67" transform="translate(115.230469 0)"/>
     <use xlink:href="#DejaVuSans-67" transform="translate(178.707031 0)"/>
     <use xlink:href="#DejaVuSans-65" transform="translate(242.183594 0)"/>
     <use xlink:href="#DejaVuSans-72" transform="translate(303.707031 0)"/>
    </g>
   </g>
   <g id="patch_35">
    <path d="M 32.190067 643.725779 
Q 110.812066 643.725779 189.434065 643.725779 
" style="fill: none; stroke: #666666; stroke-linecap: round"/>
   </g>
   <g id="text_12">
    <!-- Grip -->
    <g style="fill: #111111" transform="translate(7.2 646.485154) scale(0.1 -0.1)">
     <use xlink:href="#DejaVuSans-47"/>
     <use xlink:href="#DejaVuSans-72" transform="translate(77.490234 0)"/>
     <use xlink:href="#DejaVuSans-69" transform="translate(118.603516 0)"/>
     <use xlink:href="#DejaVuSans-70" transform="translate(146.386719 0)"/>
    </g>
   </g>
   <g id="patch_36">
    <path d="M 402.364876 216.923072 
Q 346.515799 216.923072 290.666723 216.923072 
" style="fill: none; stroke: #666666; stroke-linecap: round"/>
   </g>
   <g id="text_13">
    <!-- Umbrella check valve -->
    <g style="fill: #111111" transform="translate(406.368 214.08354) scale(0.1 -0.1)">
     <defs>
      <path id="DejaVuSans-55" d="M 556 4666 
L 1191 4666 
L 1191 1831 
Q 1191 1081 1462 751 
Q 1734 422 2344 422 
Q 2950 422 3222 751 
Q 3494 1081 3494 1831 
L 3494 4666 
L 4128 4666 
L 4128 1753 
Q 4128 841 3676 375 
Q 3225 -91 2344 -91 
Q 1459 -91 1007 375 
Q 556 841 556 1753 
L 556 4666 
z
" transform="scale(0.015625)"/>
     </defs>
     <use xlink:href="#DejaVuSans-55"/>
     <use xlink:href="#DejaVuSans-6d" transform="translate(73.193359 0)"/>
     <use xlink:href="#DejaVuSans-62" transform="translate(170.605469 0)"/>
     <use xlink:href="#DejaVuSans-72" transform="translate(234.082031 0)"/>
     <use xlink:href="#DejaVuSans-65" transform="translate(272.945312 0)"/>
     <use xlink:href="#DejaVuSans-6c" transform="translate(334.46875 0)"/>
     <use xlink:href="#DejaVuSans-6c" transform="translate(362.251953 0)"/>
     <use xlink:href="#DejaVuSans-61" transform="translate(390.035156 0)"/>
     <use xlink:href="#DejaVuSans-20" transform="translate(451.314453 0)"/>
     <use xlink:href="#DejaVuSans-63" transform="translate(483.101562 0)"/>
     <use xlink:href="#DejaVuSans-68" transform="translate(538.082031 0)"/>
     <use xlink:href="#DejaVuSans-65" transform="translate(601.460938 0)"/>
     <use xlink:href="#DejaVuSans-63" transform="translate(662.984375 0)"/>
     <use xlink:href="#DejaVuSans-6b" transform="translate(717.964844 0)"/>
     <use xlink:href="#DejaVuSans-20" transform="translate(775.875 0)"/>
     <use xlink:href="#DejaVuSans-76" transform="translate(807.662109 0)"/>
     <use xlink:href="#DejaVuSans-61" transform="translate(866.841797 0)"/>
     <use xlink:href="#DejaVuSans-6c" transform="translate(928.121094 0)"/>
     <use xlink:href="#DejaVuSans-76" transform="translate(955.904297 0)"/>
     <use xlink:href="#DejaVuSans-65" transform="translate(1015.083984 0)"/>
    </g>
    <!-- (air in; paint can't back up) -->
    <g style="fill: #111111" transform="translate(406.368 225.281353) scale(0.1 -0.1)">
     <defs>
      <path id="DejaVuSans-3b" d="M 750 3309 
L 1409 3309 
L 1409 2516 
L 750 2516 
L 750 3309 
z
M 750 794 
L 1409 794 
L 1409 256 
L 897 -744 
L 494 -744 
L 750 256 
L 750 794 
z
" transform="scale(0.015625)"/>
      <path id="DejaVuSans-27" d="M 1147 4666 
L 1147 2931 
L 616 2931 
L 616 4666 
L 1147 4666 
z
" transform="scale(0.015625)"/>
     </defs>
     <use xlink:href="#DejaVuSans-28"/>
     <use xlink:href="#DejaVuSans-61" transform="translate(39.013672 0)"/>
     <use xlink:href="#DejaVuSans-69" transform="translate(100.292969 0)"/>
     <use xlink:href="#DejaVuSans-72" transform="translate(128.076172 0)"/>
     <use xlink:href="#DejaVuSans-20" transform="translate(169.189453 0)"/>
     <use xlink:href="#DejaVuSans-69" transform="translate(200.976562 0)"/>
     <use xlink:href="#DejaVuSans-6e" transform="translate(228.759766 0)"/>
     <use xlink:href="#DejaVuSans-3b" transform="translate(292.138672 0)"/>
     <use xlink:href="#DejaVuSans-20" transform="translate(325.830078 0)"/>
     <use xlink:href="#DejaVuSans-70" transform="translate(357.617188 0)"/>
     <use xlink:href="#DejaVuSans-61" transform="translate(421.09375 0)"/>
     <use xlink:href="#DejaVuSans-69" transform="translate(482.373047 0)"/>
     <use xlink:href="#DejaVuSans-6e" transform="translate(510.15625 0)"/>
     <use xlink:href="#DejaVuSans-74" transform="translate(573.535156 0)"/>
     <use xlink:href="#DejaVuSans-20" transform="translate(612.744141 0)"/>
     <use xlink:href="#DejaVuSans-63" transform="translate(644.53125 0)"/>
     <use xlink:href="#DejaVuSans-61" transform="translate(699.511719 0)"/>
     <use xlink:href="#DejaVuSans-6e" transform="translate(760.791016 0)"/>
     <use xlink:href="#DejaVuSans-27" transform="translate(824.169922 0)"/>
     <use xlink:href="#DejaVuSans-74" transform="translate(851.660156 0)"/>
     <use xlink:href="#DejaVuSans-20" transform="translate(890.869141 0)"/>
     <use xlink:href="#DejaVuSans-62" transform="translate(922.65625 0)"/>
     <use xlink:href="#DejaVuSans-61" transform="translate(986.132812 0)"/>
     <use xlink:href="#DejaVuSans-63" transform="translate(1047.412109 0)"/>
     <use xlink:href="#DejaVuSans-6b" transform="translate(1102.392578 0)"/>
     <use xlink:href="#DejaVuSans-20" transform="translate(1160.302734 0)"/>
     <use xlink:href="#DejaVuSans-75" transform="translate(1192.089844 0)"/>
     <use xlink:href="#DejaVuSans-70" transform="translate(1255.46875 0)"/>
     <use xlink:href="#DejaVuSans-29" transform="translate(1318.945312 0)"/>
    </g>
   </g>
   <g id="patch_37">
    <path d="M 402.366354 299.827195 
Q 338.837568 299.827195 275.308782 299.827195 
" style="fill: none; stroke: #666666; stroke-linecap: round"/>
   </g>
   <g id="text_14">
    <!-- Air dip-tube -->
    <g style="fill: #111111" transform="translate(406.368 302.58657) scale(0.1 -0.1)">
     <defs>
      <path id="DejaVuSans-41" d="M 2188 4044 
L 1331 1722 
L 3047 1722 
L 2188 4044 
z
M 1831 4666 
L 2547 4666 
L 4325 0 
L 3669 0 
L 3244 1197 
L 1141 1197 
L 716 0 
L 50 0 
L 1831 4666 
z
" transform="scale(0.015625)"/>
     </defs>
     <use xlink:href="#DejaVuSans-41"/>
     <use xlink:href="#DejaVuSans-69" transform="translate(68.408203 0)"/>
     <use xlink:href="#DejaVuSans-72" transform="translate(96.191406 0)"/>
     <use xlink:href="#DejaVuSans-20" transform="translate(137.304688 0)"/>
     <use xlink:href="#DejaVuSans-64" transform="translate(169.091797 0)"/>
     <use xlink:href="#DejaVuSans-69" transform="translate(232.568359 0)"/>
     <use xlink:href="#DejaVuSans-70" transform="translate(260.351562 0)"/>
     <use xlink:href="#DejaVuSans-2d" transform="translate(323.828125 0)"/>
     <use xlink:href="#DejaVuSans-74" transform="translate(359.912109 0)"/>
     <use xlink:href="#DejaVuSans-75" transform="translate(399.121094 0)"/>
     <use xlink:href="#DejaVuSans-62" transform="translate(462.5 0)"/>
     <use xlink:href="#DejaVuSans-65" transform="translate(525.976562 0)"/>
    </g>
   </g>
   <g id="patch_38">
    <path d="M 463.064464 589.307727 
Q 420.218483 563.301478 377.372501 537.295228 
" style="fill: none; stroke: #666666; stroke-linecap: round"/>
   </g>
   <g id="text_15">
    <!-- Air pump (TPU bellows) -->
    <g style="fill: #111111" transform="translate(426.838154 599.94594) scale(0.1 -0.1)">
     <use xlink:href="#DejaVuSans-41"/>
     <use xlink:href="#DejaVuSans-69" transform="translate(68.408203 0)"/>
     <use xlink:href="#DejaVuSans-72" transform="translate(96.191406 0)"/>
     <use xlink:href="#DejaVuSans-20" transform="translate(137.304688 0)"/>
     <use xlink:href="#DejaVuSans-70" transform="translate(169.091797 0)"/>
     <use xlink:href="#DejaVuSans-75" transform="translate(232.568359 0)"/>
     <use xlink:href="#DejaVuSans-6d" transform="translate(295.947266 0)"/>
     <use xlink:href="#DejaVuSans-70" transform="translate(393.359375 0)"/>
     <use xlink:href="#DejaVuSans-20" transform="translate(456.835938 0)"/>
     <use xlink:href="#DejaVuSans-28" transform="translate(488.623047 0)"/>
     <use xlink:href="#DejaVuSans-54" transform="translate(527.636719 0)"/>
     <use xlink:href="#DejaVuSans-50" transform="translate(588.720703 0)"/>
     <use xlink:href="#DejaVuSans-55" transform="translate(649.023438 0)"/>
     <use xlink:href="#DejaVuSans-20" transform="translate(722.216797 0)"/>
     <use xlink:href="#DejaVuSans-62" transform="translate(754.003906 0)"/>
     <use xlink:href="#DejaVuSans-65" transform="translate(817.480469 0)"/>
     <use xlink:href="#DejaVuSans-6c" transform="translate(879.003906 0)"/>
     <use xlink:href="#DejaVuSans-6c" transform="translate(906.787109 0)"/>
     <use xlink:href="#DejaVuSans-6f" transform="translate(934.570312 0)"/>
     <use xlink:href="#DejaVuSans-77" transform="translate(995.751953 0)"/>
     <use xlink:href="#DejaVuSans-73" transform="translate(1077.539062 0)"/>
     <use xlink:href="#DejaVuSans-29" transform="translate(1129.638672 0)"/>
    </g>
    <!-- + intake check valve -->
    <g style="fill: #111111" transform="translate(426.838154 611.143753) scale(0.1 -0.1)">
     <use xlink:href="#DejaVuSans-2b"/>
     <use xlink:href="#DejaVuSans-20" transform="translate(83.789062 0)"/>
     <use xlink:href="#DejaVuSans-69" transform="translate(115.576172 0)"/>
     <use xlink:href="#DejaVuSans-6e" transform="translate(143.359375 0)"/>
     <use xlink:href="#DejaVuSans-74" transform="translate(206.738281 0)"/>
     <use xlink:href="#DejaVuSans-61" transform="translate(245.947266 0)"/>
     <use xlink:href="#DejaVuSans-6b" transform="translate(307.226562 0)"/>
     <use xlink:href="#DejaVuSans-65" transform="translate(361.511719 0)"/>
     <use xlink:href="#DejaVuSans-20" transform="translate(423.035156 0)"/>
     <use xlink:href="#DejaVuSans-63" transform="translate(454.822266 0)"/>
     <use xlink:href="#DejaVuSans-68" transform="translate(509.802734 0)"/>
     <use xlink:href="#DejaVuSans-65" transform="translate(573.181641 0)"/>
     <use xlink:href="#DejaVuSans-63" transform="translate(634.705078 0)"/>
     <use xlink:href="#DejaVuSans-6b" transform="translate(689.685547 0)"/>
     <use xlink:href="#DejaVuSans-20" transform="translate(747.595703 0)"/>
     <use xlink:href="#DejaVuSans-76" transform="translate(779.382812 0)"/>
     <use xlink:href="#DejaVuSans-61" transform="translate(838.5625 0)"/>
     <use xlink:href="#DejaVuSans-6c" transform="translate(899.841797 0)"/>
     <use xlink:href="#DejaVuSans-76" transform="translate(927.625 0)"/>
     <use xlink:href="#DejaVuSans-65" transform="translate(986.804688 0)"/>
    </g>
   </g>
   <g id="patch_39">
    <path d="M 497.804132 422.521205 
Q 488.380529 440.126572 478.956926 457.73194 
" style="fill: none; stroke: #666666; stroke-linecap: round"/>
   </g>
   <g id="text_16">
    <!-- Spring-loaded PINCH valve -->
    <g style="fill: #111111" transform="translate(426.838154 405.479479) scale(0.1 -0.1)">
     <defs>
      <path id="DejaVuSans-4e" d="M 628 4666 
L 1478 4666 
L 3547 763 
L 3547 4666 
L 4159 4666 
L 4159 0 
L 3309 0 
L 1241 3903 
L 1241 0 
L 628 0 
L 628 4666 
z
" transform="scale(0.015625)"/>
      <path id="DejaVuSans-48" d="M 628 4666 
L 1259 4666 
L 1259 2753 
L 3553 2753 
L 3553 4666 
L 4184 4666 
L 4184 0 
L 3553 0 
L 3553 2222 
L 1259 2222 
L 1259 0 
L 628 0 
L 628 4666 
z
" transform="scale(0.015625)"/>
     </defs>
     <use xlink:href="#DejaVuSans-53"/>
     <use xlink:href="#DejaVuSans-70" transform="translate(63.476562 0)"/>
     <use xlink:href="#DejaVuSans-72" transform="translate(126.953125 0)"/>
     <use xlink:href="#DejaVuSans-69" transform="translate(168.066406 0)"/>
     <use xlink:href="#DejaVuSans-6e" transform="translate(195.849609 0)"/>
     <use xlink:href="#DejaVuSans-67" transform="translate(259.228516 0)"/>
     <use xlink:href="#DejaVuSans-2d" transform="translate(322.705078 0)"/>
     <use xlink:href="#DejaVuSans-6c" transform="translate(358.789062 0)"/>
     <use xlink:href="#DejaVuSans-6f" transform="translate(386.572266 0)"/>
     <use xlink:href="#DejaVuSans-61" transform="translate(447.753906 0)"/>
     <use xlink:href="#DejaVuSans-64" transform="translate(509.033203 0)"/>
     <use xlink:href="#DejaVuSans-65" transform="translate(572.509766 0)"/>
     <use xlink:href="#DejaVuSans-64" transform="translate(634.033203 0)"/>
     <use xlink:href="#DejaVuSans-20" transform="translate(697.509766 0)"/>
     <use xlink:href="#DejaVuSans-50" transform="translate(729.296875 0)"/>
     <use xlink:href="#DejaVuSans-49" transform="translate(789.599609 0)"/>
     <use xlink:href="#DejaVuSans-4e" transform="translate(819.091797 0)"/>
     <use xlink:href="#DejaVuSans-43" transform="translate(893.896484 0)"/>
     <use xlink:href="#DejaVuSans-48" transform="translate(963.720703 0)"/>
     <use xlink:href="#DejaVuSans-20" transform="translate(1038.916016 0)"/>
     <use xlink:href="#DejaVuSans-76" transform="translate(1070.703125 0)"/>
     <use xlink:href="#DejaVuSans-61" transform="translate(1129.882812 0)"/>
     <use xlink:href="#DejaVuSans-6c" transform="translate(1191.162109 0)"/>
     <use xlink:href="#DejaVuSans-76" transform="translate(1218.945312 0)"/>
     <use xlink:href="#DejaVuSans-65" transform="translate(1278.125 0)"/>
    </g>
    <!-- (trigger-cammed = the control) -->
    <g style="fill: #111111" transform="translate(426.838154 416.677291) scale(0.1 -0.1)">
     <use xlink:href="#DejaVuSans-28"/>
     <use xlink:href="#DejaVuSans-74" transform="translate(39.013672 0)"/>
     <use xlink:href="#DejaVuSans-72" transform="translate(78.222656 0)"/>
     <use xlink:href="#DejaVuSans-69" transform="translate(119.335938 0)"/>
     <use xlink:href="#DejaVuSans-67" transform="translate(147.119141 0)"/>
     <use xlink:href="#DejaVuSans-67" transform="translate(210.595703 0)"/>
     <use xlink:href="#DejaVuSans-65" transform="translate(274.072266 0)"/>
     <use xlink:href="#DejaVuSans-72" transform="translate(335.595703 0)"/>
     <use xlink:href="#DejaVuSans-2d" transform="translate(370.333984 0)"/>
     <use xlink:href="#DejaVuSans-63" transform="translate(406.417969 0)"/>
     <use xlink:href="#DejaVuSans-61" transform="translate(461.398438 0)"/>
     <use xlink:href="#DejaVuSans-6d" transform="translate(522.677734 0)"/>
     <use xlink:href="#DejaVuSans-6d" transform="translate(620.089844 0)"/>
     <use xlink:href="#DejaVuSans-65" transform="translate(717.501953 0)"/>
     <use xlink:href="#DejaVuSans-64" transform="translate(779.025391 0)"/>
     <use xlink:href="#DejaVuSans-20" transform="translate(842.501953 0)"/>
     <use xlink:href="#DejaVuSans-3d" transform="translate(874.289062 0)"/>
     <use xlink:href="#DejaVuSans-20" transform="translate(958.078125 0)"/>
     <use xlink:href="#DejaVuSans-74" transform="translate(989.865234 0)"/>
     <use xlink:href="#DejaVuSans-68" transform="translate(1029.074219 0)"/>
     <use xlink:href="#DejaVuSans-65" transform="translate(1092.453125 0)"/>
     <use xlink:href="#DejaVuSans-20" transform="translate(1153.976562 0)"/>
     <use xlink:href="#DejaVuSans-63" transform="translate(1185.763672 0)"/>
     <use xlink:href="#DejaVuSans-6f" transform="translate(1240.744141 0)"/>
     <use xlink:href="#DejaVuSans-6e" transform="translate(1301.925781 0)"/>
     <use xlink:href="#DejaVuSans-74" transform="translate(1365.304688 0)"/>
     <use xlink:href="#DejaVuSans-72" transform="translate(1404.513672 0)"/>
     <use xlink:href="#DejaVuSans-6f" transform="translate(1443.376953 0)"/>
     <use xlink:href="#DejaVuSans-6c" transform="translate(1504.558594 0)"/>
     <use xlink:href="#DejaVuSans-29" transform="translate(1532.341797 0)"/>
    </g>
   </g>
   <g id="patch_40">
    <path d="M 574.709643 522.318967 
Q 577.404617 502.133147 580.09959 481.947327 
" style="fill: none; stroke: #666666; stroke-linecap: round"/>
   </g>
   <g id="text_17">
    <!-- Perforated mop dome -->
    <g style="fill: #111111" transform="translate(518.953846 533.899308) scale(0.1 -0.1)">
     <use xlink:href="#DejaVuSans-50"/>
     <use xlink:href="#DejaVuSans-65" transform="translate(56.677734 0)"/>
     <use xlink:href="#DejaVuSans-72" transform="translate(118.201172 0)"/>
     <use xlink:href="#DejaVuSans-66" transform="translate(159.314453 0)"/>
     <use xlink:href="#DejaVuSans-6f" transform="translate(194.519531 0)"/>
     <use xlink:href="#DejaVuSans-72" transform="translate(255.701172 0)"/>
     <use xlink:href="#DejaVuSans-61" transform="translate(296.814453 0)"/>
     <use xlink:href="#DejaVuSans-74" transform="translate(358.09375 0)"/>
     <use xlink:href="#DejaVuSans-65" transform="translate(397.302734 0)"/>
     <use xlink:href="#DejaVuSans-64" transform="translate(458.826172 0)"/>
     <use xlink:href="#DejaVuSans-20" transform="translate(522.302734 0)"/>
     <use xlink:href="#DejaVuSans-6d" transform="translate(554.089844 0)"/>
     <use xlink:href="#DejaVuSans-6f" transform="translate(651.501953 0)"/>
     <use xlink:href="#DejaVuSans-70" transform="translate(712.683594 0)"/>
     <use xlink:href="#DejaVuSans-20" transform="translate(776.160156 0)"/>
     <use xlink:href="#DejaVuSans-64" transform="translate(807.947266 0)"/>
     <use xlink:href="#DejaVuSans-6f" transform="translate(871.423828 0)"/>
     <use xlink:href="#DejaVuSans-6d" transform="translate(932.605469 0)"/>
     <use xlink:href="#DejaVuSans-65" transform="translate(1030.017578 0)"/>
    </g>
   </g>
  </g>
 </g>
 <defs>
  <clipPath id="pfe89fc13c8">
   <rect x="7.2" y="28.597656" width="655.044923" height="665.28"/>
  </clipPath>
 </defs>
</svg>
